<?xml version="1.0" standalone="no"?>
<!DOCTYPE svg PUBLIC "-//W3C//DTD SVG 20010904//EN"
 "http://www.w3.org/TR/2001/REC-SVG-20010904/DTD/svg10.dtd">
<svg version="1.0" xmlns="http://www.w3.org/2000/svg"
 width="1106.000000pt" height="1106.000000pt" viewBox="0 0 1106.000000 1106.000000"
 preserveAspectRatio="xMidYMid meet">
<metadata>
Created by potrace 1.11, written by Peter Selinger 2001-2013
</metadata>
<g transform="translate(0.000000,1106.000000) scale(0.100000,-0.100000)"
fill="#000000" stroke="none">
<path d="M5470 10540 c-8 -5 -37 -9 -63 -8 -32 1 -53 -4 -64 -14 -20 -21 -8
-56 24 -69 30 -11 28 -43 -3 -47 -26 -4 -64 51 -64 91 0 42 -17 41 -64 -5 -31
-31 -45 -54 -49 -81 -3 -22 -19 -55 -34 -75 -15 -20 -30 -53 -33 -72 -4 -31
-8 -35 -30 -32 -28 3 -66 -29 -72 -62 -6 -33 -28 -31 -28 3 0 35 -12 44 -52
43 -16 0 -43 5 -60 13 -30 12 -27 13 68 20 104 8 124 15 124 46 0 12 7 19 18
19 10 0 32 20 51 46 28 41 32 52 29 102 l-3 57 -69 3 c-39 2 -74 -2 -80 -8 -5
-5 -29 -10 -52 -10 -51 0 -74 -8 -74 -24 0 -10 -33 -13 -131 -12 -117 1 -132
-1 -144 -18 -12 -16 -17 -17 -30 -6 -30 25 -45 5 -45 -60 0 -56 -1 -60 -16
-46 -21 21 -26 20 -58 -9 -42 -39 -28 -91 22 -78 16 4 22 1 22 -11 0 -10 -9
-16 -25 -16 -17 0 -29 -9 -39 -29 -9 -16 -24 -31 -34 -33 -20 -6 -72 -103 -72
-136 0 -18 -28 -52 -43 -52 -4 0 -7 23 -7 50 0 54 -17 73 -45 50 -13 -11 -15
-7 -15 24 0 23 5 39 15 42 8 4 15 18 15 33 0 20 7 31 25 39 26 12 32 26 15 37
-31 19 7 65 54 65 35 0 76 34 76 62 0 46 -34 64 -60 33 -8 -10 -31 -15 -67
-15 -40 0 -63 -6 -84 -21 -16 -11 -42 -20 -57 -19 -42 3 -52 1 -52 -12 0 -6
-10 -22 -21 -34 -16 -17 -26 -21 -39 -14 -30 16 -74 -3 -81 -36 l-6 -29 -11
27 c-6 14 -19 29 -30 32 -22 7 -52 -2 -52 -15 0 -5 -10 -9 -23 -9 -12 0 -39
-9 -60 -20 -20 -11 -45 -20 -54 -20 -10 0 -27 -7 -37 -15 -11 -8 -28 -15 -38
-15 -9 0 -22 -9 -28 -20 -7 -14 -21 -20 -45 -20 -18 0 -46 -7 -62 -15 -15 -8
-52 -25 -80 -37 -29 -13 -53 -26 -53 -30 0 -3 -14 -10 -32 -13 -17 -4 -38 -14
-46 -21 -7 -8 -19 -14 -26 -14 -27 0 -90 -42 -113 -75 -13 -19 -28 -35 -33
-35 -20 0 -9 -40 15 -56 21 -14 30 -14 56 -4 23 10 33 10 42 1 6 -6 22 -11 36
-11 15 -1 37 -10 50 -21 24 -20 24 -21 8 -52 -9 -18 -17 -43 -19 -56 -5 -43
-26 -35 -24 8 1 50 -13 67 -42 52 -18 -9 -21 -8 -24 11 -4 28 -37 36 -54 13
-10 -13 -21 -16 -44 -11 -18 3 -40 1 -50 -4 -22 -12 -60 -88 -60 -121 0 -14
-13 -36 -30 -52 -26 -25 -31 -26 -36 -12 -5 12 -14 15 -30 11 -26 -7 -74 2
-74 13 0 3 15 13 33 21 24 11 34 24 41 53 5 20 14 37 20 37 15 0 76 70 87 99
6 14 8 30 5 38 -7 18 -41 17 -56 -2 -7 -8 -19 -15 -26 -15 -8 0 -14 -4 -14
-10 0 -5 -11 -12 -25 -16 -14 -3 -31 -14 -38 -23 -6 -10 -32 -27 -57 -39 -65
-32 -78 -44 -82 -77 -2 -23 -7 -29 -22 -27 -31 6 -82 -7 -104 -26 -11 -9 -30
-24 -42 -32 -51 -34 -70 -52 -70 -65 0 -7 -7 -18 -15 -25 -8 -7 -16 -31 -16
-54 -2 -28 -3 -33 -6 -14 -2 14 -11 32 -20 39 -13 11 -17 10 -29 -6 -22 -33
-58 -65 -72 -65 -18 0 -46 -22 -148 -117 -81 -76 -82 -78 -69 -104 8 -14 23
-29 35 -32 29 -8 26 -45 -5 -57 -19 -7 -25 -17 -25 -39 0 -49 45 -50 51 -1 3
20 11 26 34 28 21 2 37 13 50 32 11 16 32 35 47 41 22 9 27 16 22 34 -4 16 4
31 32 59 20 20 38 35 40 34 9 -10 -18 -85 -39 -106 -25 -24 -25 -26 -9 -59 15
-33 15 -36 -2 -66 -12 -20 -21 -60 -24 -105 -4 -65 -8 -75 -33 -97 -16 -13
-29 -27 -29 -32 0 -5 -8 -24 -18 -43 -25 -47 -16 -84 22 -88 31 -4 46 10 46
45 0 12 7 28 15 37 8 8 15 19 15 25 0 6 5 11 11 11 7 0 9 -8 4 -22 -26 -83 -9
-104 35 -43 29 39 40 44 40 15 0 -21 25 -38 38 -26 4 4 7 31 7 59 1 58 20 91
94 165 31 31 48 41 60 36 9 -4 33 -9 53 -12 45 -5 42 -26 -8 -47 -42 -17 -43
-38 -3 -76 35 -33 65 -38 73 -11 15 53 18 115 5 123 -11 7 -11 9 -1 9 7 0 35
23 62 51 30 31 56 49 67 48 10 -2 30 0 46 4 31 8 37 40 10 55 -14 9 -14 11 6
21 17 10 26 10 37 1 7 -7 30 -10 51 -8 55 7 83 -6 83 -38 0 -24 -3 -26 -30
-20 -29 5 -30 4 -30 -28 0 -25 5 -35 20 -39 11 -3 20 -10 20 -15 0 -7 -11 -7
-32 -1 -45 13 -65 -7 -52 -53 8 -26 16 -34 39 -38 27 -5 30 -10 33 -45 2 -22
8 -45 14 -52 7 -8 5 -19 -6 -35 -9 -12 -16 -39 -16 -60 0 -34 3 -38 33 -46 26
-7 33 -14 35 -38 5 -38 15 -48 46 -40 31 8 42 39 26 76 -10 23 -9 31 6 49 10
12 24 21 31 21 22 0 43 31 43 64 0 38 -15 56 -47 56 -44 0 -23 19 25 22 43 3
47 5 50 31 2 19 9 27 23 27 17 0 18 -3 9 -20 -6 -12 -10 -33 -8 -48 4 -36 40
-38 48 -3 13 54 64 53 75 -1 4 -18 13 -43 21 -55 13 -21 12 -23 -12 -29 -14
-4 -36 -1 -48 6 -37 19 -68 9 -79 -25 -5 -16 -16 -38 -25 -47 -10 -12 -12 -22
-5 -30 6 -7 11 -37 11 -67 1 -44 -3 -58 -19 -68 -25 -18 -25 -43 1 -43 21 0
45 -34 35 -50 -3 -6 -19 -10 -35 -10 -24 0 -31 -5 -35 -27 -4 -16 -14 -46 -25
-68 l-18 -40 -10 27 c-6 14 -16 29 -21 33 -6 3 -11 22 -11 41 0 31 -2 34 -31
34 -26 0 -33 -5 -46 -39 -10 -26 -27 -45 -49 -57 -19 -10 -33 -22 -31 -27 3
-9 100 -51 143 -61 26 -7 26 -7 8 -34 -24 -37 -54 -57 -81 -54 -17 3 -24 -3
-28 -21 -17 -67 18 -102 93 -93 24 3 42 2 42 -4 0 -6 -7 -10 -15 -10 -8 0 -17
-11 -21 -25 -6 -24 -8 -25 -23 -10 -29 25 -51 18 -67 -21 -23 -54 -15 -88 20
-94 38 -6 31 -25 -9 -25 -40 0 -55 -11 -55 -40 0 -26 16 -41 40 -37 9 1 26
-11 38 -28 23 -31 50 -38 69 -19 9 9 16 2 27 -25 14 -33 19 -36 58 -38 35 -1
37 -2 11 -5 -37 -5 -50 -29 -28 -53 8 -9 15 -22 15 -28 0 -7 14 -12 30 -12 28
0 30 -3 28 -27 -4 -40 34 -44 70 -8 32 33 21 62 -22 57 -25 -3 -27 -2 -16 18
16 30 36 35 82 19 35 -11 44 -11 69 4 37 21 37 10 -1 -27 -27 -27 -49 -81 -36
-93 10 -10 -15 -43 -33 -43 -10 0 -35 -11 -55 -25 -20 -14 -39 -25 -41 -25
-16 0 -98 -67 -105 -85 -5 -13 -14 -26 -19 -30 -14 -8 -14 -72 -1 -80 5 -3 14
-24 20 -46 6 -22 18 -43 26 -46 24 -9 15 -37 -19 -58 -37 -23 -49 -73 -23 -95
29 -23 18 -39 -26 -42 -40 -3 -43 -5 -43 -33 0 -25 4 -30 22 -27 17 2 24 -3
29 -25 7 -30 31 -63 46 -63 4 0 28 -20 52 -45 25 -25 47 -45 49 -45 14 0 69
35 74 46 8 21 21 17 52 -16 l27 -30 35 23 c19 12 40 35 47 50 11 22 17 25 31
18 24 -13 41 4 41 41 0 22 -6 31 -27 39 -37 14 -53 5 -53 -31 0 -33 -14 -38
-47 -15 -19 13 -20 19 -10 45 12 31 21 37 32 20 10 -17 25 -11 34 14 9 23 51
43 51 24 0 -5 10 -8 23 -6 17 2 23 11 25 36 2 22 -2 34 -12 38 -9 3 -16 16
-16 28 0 28 -18 46 -47 46 -19 0 -23 5 -23 30 0 27 3 30 30 30 64 0 38 63 -32
77 -15 3 -28 11 -28 18 0 6 -11 25 -25 41 -31 36 -31 39 1 69 23 21 25 27 13
41 -10 13 -10 17 1 24 24 15 31 0 28 -63 -3 -56 -1 -62 17 -62 15 0 22 10 31
44 10 45 36 73 59 65 29 -12 114 55 116 90 1 16 3 14 9 -7 13 -42 27 -55 55
-49 26 4 39 40 34 92 -4 46 1 56 34 71 22 10 33 22 35 40 3 29 -15 39 -72 39
-25 0 -27 3 -21 23 4 12 9 38 12 59 4 31 2 37 -17 43 l-23 7 26 22 c14 11 28
31 32 44 10 33 32 27 45 -13 9 -27 17 -35 35 -35 34 0 50 26 47 79 -2 62 5 84
26 72 25 -14 72 26 72 61 0 39 -38 81 -67 73 -16 -4 -23 -1 -23 9 0 8 5 18 10
21 16 10 12 75 -5 81 -8 4 -15 15 -15 25 0 29 -30 69 -51 69 -21 0 -42 -40
-37 -73 4 -23 -27 -47 -41 -32 -5 6 -7 53 -4 107 6 95 6 98 28 92 26 -6 38 6
25 26 -7 11 -11 11 -24 1 -13 -11 -17 -11 -22 3 -4 10 3 23 17 35 38 31 67 34
96 11 30 -23 47 -15 57 26 8 32 -11 57 -37 50 -13 -3 -26 3 -38 17 -15 19 -21
20 -37 10 -18 -10 -21 -9 -26 12 -9 33 3 81 25 101 11 9 19 30 19 45 0 15 5
31 10 34 6 3 10 25 10 47 0 39 1 40 18 25 10 -10 28 -17 40 -17 25 0 29 -15 7
-24 -11 -4 -15 -20 -15 -56 0 -68 13 -92 45 -84 21 5 25 2 25 -14 0 -25 12
-34 34 -26 22 8 25 55 5 79 -17 20 -23 37 -20 63 2 20 18 14 24 -9 4 -16 12
-20 34 -17 24 2 28 7 25 29 -3 36 25 47 38 14 12 -31 46 -50 64 -36 7 6 21 29
31 51 10 22 21 40 24 40 3 0 14 -11 24 -25 16 -23 16 -25 -3 -58 -15 -25 -19
-43 -14 -64 8 -32 20 -43 51 -43 25 0 33 10 43 54 6 27 8 29 15 11 24 -65 33
-78 63 -92 28 -14 39 -14 72 -3 22 7 42 21 45 31 3 10 26 27 50 39 26 13 48
32 55 48 6 15 17 38 25 51 15 27 10 41 -25 79 -27 28 -64 28 -84 0 -35 -49
-172 -7 -145 44 14 25 3 38 -31 38 -22 0 -33 -8 -50 -37 l-22 -38 -34 39 c-25
28 -37 36 -46 29 -20 -16 -138 -4 -138 14 0 7 6 16 14 19 8 3 19 19 25 35 13
36 19 36 54 -1 31 -32 60 -44 98 -38 21 3 24 8 21 38 -2 19 -7 39 -12 43 -9
10 9 77 21 77 4 0 9 -7 13 -15 8 -22 43 -18 67 6 22 22 23 22 73 4 28 -9 63
-26 78 -36 15 -10 33 -19 39 -19 7 0 5 -7 -5 -19 -10 -11 -15 -25 -11 -30 9
-16 51 -13 65 4 19 22 35 3 21 -24 -7 -12 -16 -21 -21 -21 -6 0 -10 -11 -10
-24 0 -30 50 -69 82 -64 33 5 81 92 76 137 -3 22 -8 26 -35 25 -18 -1 -33 2
-33 6 0 12 47 40 69 40 11 0 24 7 29 15 7 13 12 11 32 -15 12 -16 31 -30 41
-30 23 0 23 -1 4 -48 -15 -34 -15 -38 1 -49 22 -16 26 -16 48 0 14 10 24 11
41 3 21 -10 23 -16 18 -64 -5 -44 -2 -58 16 -82 11 -16 21 -34 21 -39 0 -19
83 -51 129 -51 56 0 114 27 134 63 21 35 37 35 37 -2 0 -16 3 -36 6 -45 7 -17
34 -22 34 -6 0 5 13 16 29 24 26 14 30 14 35 0 3 -9 6 -24 6 -35 0 -25 30 -25
63 1 33 26 51 27 37 1 -13 -26 2 -67 29 -76 18 -6 70 0 114 12 21 6 23 46 1
64 -14 11 -14 13 1 21 26 15 67 88 61 111 -3 13 3 26 20 39 13 11 24 28 24 39
0 10 5 19 10 19 6 0 10 14 10 31 0 36 40 74 79 74 18 0 27 8 34 30 5 17 20 41
33 56 13 14 24 30 24 36 0 22 19 24 40 3 31 -31 65 -26 90 15 19 31 23 33 46
23 19 -9 24 -18 21 -32 -38 -153 -51 -186 -77 -186 -11 0 -20 7 -20 15 0 24
-74 24 -101 -1 -8 -8 -19 -14 -23 -14 -18 0 -45 -47 -46 -78 0 -37 26 -55 44
-31 6 8 23 20 38 26 15 7 37 26 49 42 27 36 43 40 33 9 -4 -13 -6 -30 -6 -38
1 -8 3 -31 4 -50 3 -30 9 -37 45 -55 23 -11 49 -29 57 -40 12 -17 12 -21 -6
-34 -16 -11 -17 -15 -7 -22 26 -16 49 -10 49 13 0 12 9 32 21 44 l20 22 -30
22 c-36 25 -40 45 -11 53 22 6 27 45 10 78 -15 27 7 25 30 -3 15 -20 21 -21
44 -10 18 8 26 19 26 37 0 21 5 25 29 25 34 0 48 25 25 47 -17 17 -15 44 3 50
6 2 16 -12 23 -31 15 -46 35 -63 55 -46 8 7 15 23 15 36 0 13 6 24 13 24 22 0
37 -22 37 -55 0 -17 6 -37 13 -43 6 -7 12 -31 13 -54 0 -27 6 -43 17 -50 31
-17 18 -23 -53 -24 -70 -1 -70 0 -70 27 0 30 20 42 55 33 38 -9 40 15 4 46
-40 35 -62 37 -96 10 -14 -11 -31 -20 -39 -20 -7 0 -15 -13 -19 -29 -3 -16
-13 -35 -21 -42 -8 -7 -12 -20 -9 -30 8 -25 -3 -59 -20 -59 -15 0 -45 -43 -45
-65 0 -8 11 -21 25 -27 14 -6 25 -15 25 -20 0 -5 16 -18 35 -29 40 -24 54 -55
32 -72 -14 -11 -21 -34 -18 -64 1 -17 36 -16 50 1 6 7 29 16 50 20 23 3 52 18
71 36 47 44 75 48 109 16 20 -20 26 -34 23 -54 -2 -18 2 -33 12 -41 17 -14 22
-41 7 -41 -15 0 -21 -30 -11 -51 16 -28 53 -33 110 -14 39 13 57 26 75 54 25
41 32 76 21 103 -5 11 2 38 21 73 l28 56 6 -31 c4 -17 8 -32 10 -33 2 -1 14
-11 26 -21 19 -15 25 -16 38 -6 8 7 15 23 15 37 0 20 3 22 19 13 23 -12 51 -3
51 15 0 7 21 35 47 61 26 27 57 63 69 81 21 31 22 32 28 10 9 -36 7 -44 -14
-50 -16 -4 -20 -14 -20 -48 0 -41 0 -42 -20 -24 -15 14 -23 15 -34 6 -19 -16
-29 -62 -17 -74 18 -18 12 -27 -17 -27 -17 0 -32 -8 -40 -21 -9 -13 -19 -18
-32 -14 -22 7 -80 -31 -80 -52 0 -7 -8 -13 -19 -13 -34 0 -43 -24 -21 -53 24
-30 25 -41 5 -57 -10 -8 -12 -17 -6 -24 5 -6 13 -27 18 -46 7 -27 15 -36 35
-38 19 -2 30 3 38 17 14 27 56 27 70 1 22 -41 110 -13 110 34 0 29 -20 47 -46
41 -14 -4 -25 5 -42 31 -12 20 -19 41 -15 47 4 6 6 24 5 39 -2 24 2 28 22 28
16 0 32 -11 46 -30 12 -16 29 -30 39 -30 20 0 51 30 51 48 0 7 5 12 10 12 6 0
10 -27 10 -60 0 -50 3 -61 21 -71 18 -9 21 -17 16 -50 -4 -27 -1 -39 7 -39 7
0 20 -8 30 -18 15 -18 15 -21 -4 -45 -27 -34 -25 -42 10 -69 17 -12 30 -25 30
-30 0 -14 -47 -9 -60 7 -15 18 -80 20 -81 3 -3 -34 4 -64 17 -71 9 -5 14 -26
14 -62 0 -52 -2 -55 -24 -55 -14 0 -28 -5 -31 -10 -11 -18 6 -51 31 -60 18 -7
24 -17 24 -40 0 -19 6 -33 16 -37 25 -10 49 11 49 43 0 22 -6 29 -25 34 -34 8
-32 34 3 38 22 3 31 11 39 34 l11 31 18 -22 c27 -33 73 -26 77 12 2 18 13 32
33 42 35 18 48 60 27 82 -14 13 -19 13 -48 -2 -27 -14 -31 -21 -28 -46 3 -20
0 -29 -9 -29 -7 0 -13 11 -13 25 0 14 -7 28 -15 31 -26 11 -17 34 13 34 26 0
30 5 39 44 11 51 -3 90 -37 101 -17 5 -19 10 -10 21 10 11 16 11 35 -4 13 -9
27 -29 30 -44 5 -22 12 -28 33 -28 14 0 34 8 45 18 13 11 37 17 71 18 28 0 65
4 82 8 26 6 32 3 42 -19 10 -21 18 -25 57 -25 25 0 45 -4 45 -9 0 -4 20 -16
44 -25 34 -13 50 -15 65 -7 28 16 58 14 65 -4 3 -8 11 -15 18 -15 7 0 25 -7
40 -14 16 -8 49 -18 74 -22 42 -6 49 -4 65 17 17 23 18 23 38 5 19 -17 44 -34
78 -51 16 -9 62 25 69 52 3 12 12 24 20 27 8 3 14 20 15 38 0 30 1 31 9 10 12
-29 52 -44 100 -36 37 6 39 5 42 -22 2 -23 8 -29 28 -29 33 0 37 28 11 88 -17
39 -25 47 -56 53 -26 5 -35 11 -33 23 5 24 44 25 65 2 45 -49 62 -73 82 -118
5 -11 15 -24 20 -28 6 -3 11 -21 11 -38 -1 -27 -2 -29 -11 -14 -5 9 -16 17
-23 17 -26 0 -36 -25 -29 -79 5 -43 10 -54 33 -66 20 -11 30 -11 39 -2 15 15
14 42 -4 57 -8 7 -15 19 -15 27 0 24 34 10 48 -20 13 -27 52 -45 71 -32 17 10
13 53 -5 63 -21 12 -9 33 14 25 43 -15 62 -45 62 -99 0 -50 -1 -53 -27 -56
-40 -4 -39 -42 0 -46 33 -4 57 13 57 39 0 11 5 19 11 19 19 0 59 -50 59 -74 0
-12 5 -27 11 -33 6 -6 14 -26 19 -44 21 -84 38 -114 62 -114 20 0 23 5 26 43
3 37 5 41 21 33 22 -12 46 2 38 23 -7 18 -32 21 -42 6 -9 -15 -25 -2 -25 21 0
10 6 19 14 19 8 0 17 13 21 28 6 31 -9 82 -25 82 -5 0 -10 9 -10 21 0 15 5 20
22 17 17 -2 25 -14 34 -49 6 -26 14 -52 18 -58 11 -17 46 -13 52 7 3 9 10 24
15 32 21 34 20 43 -8 73 -52 57 -57 65 -44 81 9 11 9 20 2 35 -10 18 -8 21 26
26 50 8 65 11 85 20 12 5 18 -1 23 -24 4 -20 19 -38 43 -53 31 -19 34 -23 17
-26 -27 -5 -65 -42 -65 -62 0 -10 19 -30 41 -46 l41 -28 -31 -8 c-37 -10 -40
-24 -7 -39 32 -15 40 -46 15 -59 -27 -15 -24 -46 9 -82 67 -74 85 -88 113 -88
25 0 30 5 36 30 6 33 23 41 23 12 0 -10 7 -27 15 -38 8 -10 15 -26 15 -35 0
-9 9 -27 19 -40 18 -21 21 -22 35 -9 14 13 14 21 1 70 -11 41 -23 63 -52 88
-33 29 -39 31 -49 18 -15 -22 -17 -21 -58 20 -36 36 -44 58 -27 68 15 10 18
66 5 84 -8 9 -13 33 -13 52 0 29 1 32 10 18 21 -38 49 -15 49 40 1 26 2 26 20
-9 11 -20 26 -39 35 -43 8 -3 20 -17 25 -31 5 -14 16 -25 25 -25 20 0 20 43 0
60 -8 7 -15 18 -16 24 -1 20 -60 59 -90 58 -22 0 -29 4 -29 17 0 10 -8 29 -19
42 -10 13 -21 34 -25 46 -4 11 -17 24 -30 27 -27 7 -41 42 -20 50 24 9 16 43
-11 50 -34 9 -45 1 -45 -33 0 -15 -5 -32 -11 -38 -15 -15 -47 -5 -60 18 -5 11
-19 19 -29 19 -11 0 -20 7 -20 15 0 13 4 14 21 4 12 -6 25 -7 30 -2 4 4 9 45
11 91 3 90 -3 102 -54 102 -35 0 -42 -25 -29 -105 5 -33 6 -64 2 -68 -4 -4
-19 8 -32 28 -26 37 -62 47 -73 19 -6 -17 -17 -8 -65 56 -10 14 -39 31 -66 39
-31 9 -50 21 -57 37 -6 13 -15 24 -20 24 -4 0 -8 17 -7 38 1 36 1 36 12 10 11
-27 51 -53 68 -43 12 8 12 31 -1 53 -5 9 -15 28 -20 42 -6 14 -16 34 -23 45
-69 113 -90 134 -115 118 -13 -8 -16 -21 -14 -53 4 -39 2 -41 -18 -35 -23 7
-50 -9 -50 -32 0 -8 15 -20 34 -28 29 -12 36 -23 57 -85 13 -39 31 -76 40 -81
16 -8 16 -49 0 -49 -11 0 -41 57 -41 78 0 10 -9 29 -20 42 -11 13 -20 27 -20
31 0 15 -68 49 -98 49 -22 0 -32 -6 -37 -20 -3 -11 -10 -20 -15 -20 -5 0 -14
9 -20 20 -6 11 -17 20 -25 20 -8 0 -25 17 -38 38 -19 29 -22 42 -14 60 7 15 7
30 -1 47 -10 21 -18 25 -56 25 -35 0 -48 5 -56 19 -16 31 -12 61 8 61 32 1 57
50 55 108 -2 52 -2 52 20 37 12 -8 32 -15 44 -15 18 0 23 -6 23 -25 0 -14 7
-28 15 -31 12 -5 11 -9 -6 -23 -17 -14 -20 -24 -15 -48 6 -25 13 -32 37 -35
37 -6 53 12 44 51 -10 47 13 46 26 -1 16 -56 25 -65 38 -39 13 24 46 28 58 7
11 -20 83 -33 83 -15 1 8 8 2 16 -13 8 -16 19 -28 25 -28 5 0 14 -10 19 -22 6
-13 21 -41 35 -63 13 -22 27 -47 31 -55 14 -27 48 -60 61 -60 8 0 22 -13 31
-30 17 -30 45 -39 58 -19 3 6 -3 24 -15 40 -11 15 -21 35 -21 44 0 8 -7 15
-15 15 -8 0 -15 4 -15 10 0 5 -22 31 -50 57 -56 53 -60 62 -27 56 14 -3 29 2
36 11 12 14 11 20 -5 37 l-19 21 -17 -22 c-16 -20 -17 -20 -27 -2 -17 32 -25
102 -12 102 16 0 14 50 -2 56 -20 7 -97 -46 -97 -68 0 -24 -2 -23 -60 17 -27
19 -60 35 -73 35 -13 0 -32 9 -42 20 -10 11 -23 20 -30 20 -15 0 -35 64 -28
90 8 31 26 23 49 -23 17 -34 27 -43 53 -45 17 -2 31 1 31 6 0 19 -29 79 -44
92 -9 7 -16 19 -16 26 0 8 -4 14 -9 14 -5 0 -14 14 -21 30 -7 17 -26 38 -41
47 -16 10 -29 23 -29 30 0 17 -70 63 -95 63 -11 0 -28 9 -38 20 -20 24 -27 25
-52 6 -19 -14 -19 -15 -2 -34 23 -25 12 -32 -33 -23 -25 5 -36 13 -38 28 -2
13 -29 39 -71 68 -86 58 -98 72 -103 115 -2 30 0 35 16 32 21 -4 55 -40 56
-59 0 -7 12 -20 26 -30 14 -9 39 -29 54 -45 38 -38 76 -38 82 0 6 43 0 55 -44
86 -22 16 -69 56 -105 90 l-64 60 23 18 23 17 -32 28 c-18 15 -45 38 -61 50
-34 26 -82 40 -82 24 0 -19 -17 -12 -52 20 -18 17 -42 35 -53 40 -11 5 -33 18
-50 29 -16 11 -44 26 -61 34 -17 8 -35 19 -38 25 -4 6 -16 11 -27 11 -10 0
-19 4 -19 10 0 5 -12 16 -27 25 -16 9 -41 24 -58 35 -16 11 -40 24 -52 29 -11
5 -24 14 -27 20 -3 5 -21 13 -38 16 -18 4 -38 14 -46 21 -7 8 -22 14 -31 14
-10 0 -24 7 -31 15 -7 8 -21 15 -32 15 -11 0 -32 6 -46 14 -15 8 -49 24 -77
36 -27 12 -63 28 -80 35 -102 46 -125 55 -137 55 -8 0 -18 4 -24 9 -9 10 -94
35 -174 52 -25 6 -59 14 -76 20 -16 5 -64 12 -106 15 -69 6 -76 5 -81 -12 -3
-12 -5 -7 -6 13 -1 29 -5 33 -38 38 -21 3 -50 13 -65 21 -18 10 -40 13 -62 9
-27 -5 -36 -3 -44 11 -10 18 -39 24 -192 40 -30 3 -64 9 -75 14 -11 5 -42 11
-70 13 -27 2 -77 9 -110 15 -33 6 -166 13 -295 16 -130 3 -249 8 -265 11 -17
3 -37 1 -45 -5z"/>
<path d="M6176 9161 c-9 -14 5 -41 20 -41 20 0 30 30 13 41 -18 11 -26 11 -33
0z"/>
<path d="M4634 9075 c-9 -23 3 -45 26 -45 16 0 20 7 20 30 0 23 -4 30 -20 30
-11 0 -23 -7 -26 -15z"/>
<path d="M2004 9013 c-58 -79 -28 -120 50 -70 25 15 35 29 36 48 0 53 -53 67
-86 22z"/>
<path d="M2884 9025 c-4 -8 -4 -22 0 -30 3 -8 -2 -21 -10 -29 -15 -16 -37 -82
-49 -150 -3 -21 -11 -47 -18 -56 -8 -14 -8 -22 2 -34 14 -17 7 -36 -13 -36
-19 0 -35 -42 -42 -117 -9 -85 -44 -143 -57 -93 -3 11 -14 20 -24 20 -32 0
-90 -47 -96 -77 -15 -80 -30 -120 -50 -136 -21 -16 -21 -18 -4 -31 19 -15 65
-10 85 11 7 7 24 13 37 13 30 0 102 36 134 67 21 20 23 29 17 70 -4 34 -1 62
11 95 14 41 15 51 3 73 -11 21 -11 27 3 43 10 10 17 26 17 34 0 10 12 19 30
23 16 3 31 14 34 23 5 14 14 115 16 161 0 10 7 8 24 -8 31 -29 60 -24 64 12 3
27 -3 31 -40 28 -14 -2 -18 5 -18 28 0 26 4 31 24 31 34 0 39 13 19 49 -15 26
-24 31 -56 31 -24 0 -40 -5 -43 -15z"/>
<path d="M8965 9020 c-9 -15 3 -30 25 -30 18 0 34 23 23 34 -10 10 -41 7 -48
-4z"/>
<path d="M1875 8881 c-3 -11 -15 -23 -25 -26 -26 -8 -33 -37 -18 -69 10 -23
17 -27 47 -24 31 3 36 7 39 32 2 16 -1 33 -7 39 -8 8 -6 16 5 28 9 10 13 23 9
28 -11 18 -43 12 -50 -8z"/>
<path d="M2068 8869 c-25 -14 -24 -69 0 -69 28 0 55 35 47 59 -7 23 -21 26
-47 10z"/>
<path d="M5904 8825 c-7 -18 3 -35 22 -35 20 0 30 30 13 41 -20 12 -29 11 -35
-6z"/>
<path d="M6142 8816 c-19 -7 -37 -18 -42 -26 -8 -13 2 -58 21 -92 12 -23 -27
-66 -44 -49 -19 19 -54 12 -84 -17 -24 -22 -28 -31 -19 -44 8 -14 5 -23 -17
-46 -39 -41 -34 -92 15 -142 14 -14 33 -49 44 -78 23 -68 36 -79 66 -58 24 17
78 22 78 7 0 -5 -8 -7 -17 -5 -10 2 -23 1 -28 -3 -23 -17 -55 -67 -55 -85 0
-37 28 -30 74 16 24 25 49 46 54 46 5 0 12 -18 15 -41 10 -73 54 -99 95 -56
30 32 27 63 -9 99 -32 32 -31 33 14 59 19 11 37 4 37 -14 0 -7 9 -18 20 -25
19 -12 19 -14 5 -35 -21 -29 -20 -30 26 -60 47 -31 52 -32 68 -13 16 19 -2 62
-28 71 -27 8 -27 31 0 45 31 17 23 64 -12 68 -27 3 -69 62 -69 96 0 22 76 15
94 -9 17 -23 50 -15 54 13 5 34 -56 120 -91 127 -22 6 -27 11 -25 33 2 21 -3
29 -29 42 -47 22 -67 56 -64 106 2 45 -18 65 -39 38 -13 -15 -60 -20 -60 -6 0
4 5 13 11 19 13 13 4 34 -14 32 -7 -1 -27 -7 -45 -13z"/>
<path d="M8740 8790 c-13 -8 -13 -13 0 -37 16 -29 55 -42 72 -25 7 7 2 21 -13
41 -24 33 -35 37 -59 21z"/>
<path d="M9187 8773 c-11 -10 -8 -61 3 -68 6 -4 17 -22 24 -40 23 -54 96 -60
79 -6 -15 46 -36 82 -60 100 -27 22 -36 25 -46 14z"/>
<path d="M2590 8750 c-14 -11 -29 -25 -35 -31 -5 -6 -24 -26 -41 -43 -17 -18
-35 -42 -38 -54 -4 -12 -12 -22 -17 -22 -5 0 -9 -5 -9 -11 0 -6 -9 -22 -20
-36 -11 -14 -20 -38 -20 -53 0 -27 -22 -46 -41 -34 -13 7 -11 38 2 51 7 7 9
19 5 28 -5 13 -12 9 -37 -20 l-32 -36 -18 31 c-25 40 -24 67 1 75 28 9 45 42
30 60 -24 28 -140 -11 -140 -48 0 -5 -7 -24 -16 -42 -21 -44 -15 -71 15 -67
21 2 22 -1 19 -40 -3 -39 -1 -43 20 -46 13 -2 32 4 41 12 16 15 19 14 29 -9 7
-15 20 -25 32 -25 21 0 29 -33 10 -45 -5 -3 -10 -17 -10 -30 0 -13 5 -27 10
-30 18 -11 10 -40 -20 -73 -34 -37 -38 -57 -14 -70 15 -8 15 -10 0 -15 -9 -4
-16 -16 -16 -28 0 -11 -8 -34 -17 -50 -17 -28 -17 -30 5 -51 27 -28 45 -19 76
34 18 31 19 41 9 58 -18 27 -17 30 18 70 26 29 30 40 25 70 -3 23 -1 44 8 56
7 10 16 33 20 49 8 33 88 115 112 115 15 0 64 96 64 125 0 14 4 14 26 -4 31
-25 53 -26 79 -7 19 14 19 15 -8 27 -32 14 -36 46 -10 90 26 44 9 83 -37 86
-23 2 -44 -4 -60 -17z"/>
<path d="M1776 8735 c-11 -31 -6 -43 28 -64 56 -35 80 -28 88 24 5 33 -104 71
-116 40z"/>
<path d="M4002 8704 c-27 -19 -32 -84 -6 -84 44 0 66 38 48 84 -8 20 -14 20
-42 0z"/>
<path d="M4244 8706 c-8 -22 0 -69 12 -73 7 -2 23 6 37 19 21 18 24 27 17 46
-11 25 -57 31 -66 8z"/>
<path d="M1662 8654 c-43 -30 -8 -105 36 -78 21 14 29 74 10 85 -18 12 -20 11
-46 -7z"/>
<path d="M1946 8598 c-18 -26 -21 -74 -5 -83 6 -4 26 -4 45 -1 25 5 35 13 40
32 16 62 -46 101 -80 52z"/>
<path d="M3102 8584 c-12 -22 -4 -54 14 -54 12 0 34 29 34 44 0 3 -9 10 -19
16 -16 8 -22 6 -29 -6z"/>
<path d="M5877 8593 c-4 -3 -7 -15 -7 -25 0 -23 38 -25 47 -2 8 21 -24 43 -40
27z"/>
<path d="M9313 8589 c-30 -11 -29 -29 2 -52 31 -22 45 -15 45 23 0 32 -15 41
-47 29z"/>
<path d="M1576 8564 c-19 -18 -12 -62 12 -81 9 -7 30 -13 48 -13 63 0 49 61
-23 99 -17 9 -25 8 -37 -5z"/>
<path d="M1730 8503 c-64 -139 -63 -137 -112 -143 -25 -3 -53 -14 -63 -23 -12
-12 -26 -16 -44 -12 -22 5 -31 0 -51 -27 -27 -36 -74 -125 -90 -171 -6 -18
-16 -28 -27 -26 -10 1 -26 -1 -36 -6 -17 -7 -36 -5 -84 10 -19 6 -23 4 -23
-15 0 -13 -15 -38 -35 -57 -19 -19 -35 -41 -35 -49 0 -9 -9 -27 -20 -41 -11
-14 -20 -38 -20 -53 0 -16 -7 -30 -15 -34 -8 -3 -15 -14 -15 -24 0 -10 -8 -28
-17 -40 -43 -51 -53 -67 -53 -84 0 -10 -7 -21 -15 -24 -8 -4 -15 -13 -15 -21
0 -8 -6 -27 -14 -41 -55 -103 -69 -153 -47 -167 16 -9 55 15 86 55 22 28 33
35 43 27 10 -8 10 -13 -2 -26 -12 -13 -13 -25 -5 -61 6 -24 8 -54 5 -66 -8
-31 3 -54 24 -54 51 0 84 152 40 183 -18 13 -19 16 -5 27 21 18 19 29 -10 40
l-25 10 24 37 c56 85 77 135 74 172 -3 34 -1 36 27 39 24 2 34 11 49 43 24 48
36 58 36 28 0 -12 8 -31 17 -41 16 -18 16 -21 0 -47 -49 -84 28 -142 80 -61
26 41 81 80 113 80 30 0 50 16 50 41 0 12 11 18 38 21 44 6 53 1 30 -16 -9 -7
-20 -24 -23 -39 -4 -15 -11 -27 -16 -27 -5 0 -9 -7 -9 -15 0 -11 -11 -15 -39
-15 -48 0 -65 -18 -51 -54 14 -39 13 -46 -10 -46 -24 0 -93 -68 -110 -110 -7
-16 -16 -30 -21 -30 -5 0 -9 -6 -9 -13 0 -16 -48 -63 -56 -55 -3 4 -1 15 5 26
17 31 13 56 -9 70 -22 13 -28 70 -9 89 5 5 9 32 7 59 -3 49 -3 49 -38 49 -34
0 -35 -1 -38 -43 -2 -25 2 -50 9 -59 10 -12 10 -16 -2 -24 -8 -5 -17 -9 -21
-9 -13 0 -9 -45 4 -58 7 -7 20 -12 30 -12 22 0 24 -35 3 -47 -16 -9 -47 -98
-37 -107 15 -16 53 -4 62 19 13 34 16 32 17 -12 1 -31 -5 -43 -29 -63 -37 -31
-51 -107 -24 -129 23 -19 20 -31 -9 -31 -14 0 -25 -6 -25 -13 0 -23 12 -27 34
-12 56 40 61 4 7 -49 -37 -36 -38 -40 -29 -70 6 -17 17 -40 25 -51 7 -11 13
-23 13 -28 0 -10 -111 2 -126 14 -21 17 -47 -27 -41 -70 3 -28 1 -44 -9 -52
-19 -15 -17 -29 5 -58 13 -18 18 -35 14 -58 -5 -28 -2 -35 26 -50 34 -20 42
-61 16 -83 -19 -16 -20 -111 -1 -148 7 -15 16 -65 18 -112 5 -86 28 -150 55
-150 7 0 13 -19 15 -47 2 -37 7 -49 22 -51 23 -5 37 16 30 45 -5 20 -2 22 42
25 47 3 49 4 71 51 13 26 27 47 32 47 6 0 9 -25 8 -54 -3 -76 15 -92 54 -48
25 27 29 41 29 88 0 67 -10 89 -50 102 -38 14 -38 34 0 49 24 9 30 9 30 -2 0
-24 25 -36 45 -21 21 15 12 36 -16 36 -28 0 -24 32 7 59 23 20 25 28 20 64 -4
23 -11 46 -17 51 -16 17 -10 52 18 92 19 28 28 56 31 97 3 45 7 54 16 43 6 -7
23 -21 38 -30 25 -17 27 -16 37 3 19 34 12 58 -24 90 -37 32 -44 35 -82 31
-22 -1 -22 1 -16 62 4 53 2 73 -16 112 -11 27 -21 65 -21 86 0 50 -23 70 -50
45 -34 -31 -70 -105 -70 -144 0 -21 -7 -46 -15 -57 -8 -10 -15 -27 -15 -36 0
-18 -20 -26 -20 -9 0 5 -9 12 -19 16 -21 6 -19 26 4 55 7 8 15 29 18 45 3 17
12 49 21 73 10 27 13 49 7 60 -5 10 -4 28 4 46 11 27 12 27 18 7 8 -30 62 -26
62 4 0 15 -7 20 -29 20 -42 0 -57 29 -28 55 l22 21 31 -21 c23 -17 38 -21 66
-15 33 6 35 5 24 -9 -7 -9 -11 -23 -7 -31 20 -53 138 40 121 95 -5 17 -2 20
21 20 16 0 44 14 70 35 40 33 47 35 117 35 68 0 76 2 90 24 9 13 21 52 26 87
6 34 15 67 21 73 5 5 10 16 10 24 0 16 48 120 59 127 5 2 11 17 15 32 6 30 31
62 61 79 29 16 63 88 57 119 -5 30 15 75 35 75 7 0 13 -4 13 -10 0 -19 39 -10
54 12 18 25 13 38 -15 38 -27 0 -33 23 -16 57 27 54 30 101 8 129 -19 24 -21
25 -27 8 -16 -51 -27 -66 -57 -79 -31 -13 -32 -12 -40 11 -15 43 -52 31 -117
-38 -40 -42 -60 -57 -60 -46 0 10 -9 23 -20 30 -25 16 -26 28 -2 28 21 0 53
33 69 72 10 22 9 29 -6 42 -23 21 -38 20 -51 -4 -14 -26 -34 -26 -27 1 4 15
-1 23 -20 30 -21 8 -24 14 -18 38 4 20 2 30 -9 34 -8 3 -16 21 -18 39 -2 27
-8 34 -30 36 -24 3 -29 -3 -58 -65z"/>
<path d="M3231 8492 c-8 -15 -7 -23 4 -32 16 -13 35 -6 35 14 0 8 -6 19 -14
25 -12 10 -17 8 -25 -7z"/>
<path d="M3057 8446 c-7 -17 18 -40 33 -31 5 3 10 15 10 26 0 23 -35 27 -43 5z"/>
<path d="M6544 8446 c-3 -8 -4 -25 -2 -38 5 -34 50 -32 58 2 4 14 2 31 -3 38
-13 16 -46 15 -53 -2z"/>
<path d="M2096 8425 c-30 -28 -32 -68 -4 -73 22 -4 71 47 63 66 -3 7 -5 18 -5
23 0 17 -27 9 -54 -16z"/>
<path d="M9288 8444 c-9 -8 7 -59 18 -59 5 0 10 15 12 33 3 30 -13 44 -30 26z"/>
<path d="M5865 8404 c-20 -21 -19 -41 4 -54 25 -13 27 -13 45 6 12 11 13 20 6
34 -14 25 -37 32 -55 14z"/>
<path d="M2830 8385 c0 -16 6 -25 15 -25 9 0 15 9 15 25 0 16 -6 25 -15 25 -9
0 -15 -9 -15 -25z"/>
<path d="M6972 8378 c-22 -22 -15 -57 14 -64 32 -8 46 6 42 42 -3 32 -34 44
-56 22z"/>
<path d="M4227 8363 c-27 -26 20 -76 49 -52 22 18 17 38 -12 49 -30 12 -29 12
-37 3z"/>
<path d="M1340 8320 c-21 -14 0 -45 31 -45 17 0 25 6 27 23 2 12 -1 22 -6 22
-6 0 -16 2 -24 5 -7 3 -20 0 -28 -5z"/>
<path d="M2904 8275 c-4 -9 -2 -21 4 -27 16 -16 47 -5 47 17 0 26 -42 34 -51
10z"/>
<path d="M1301 8251 c-12 -8 -13 -14 -3 -36 15 -33 37 -27 37 10 0 31 -12 40
-34 26z"/>
<path d="M2432 8238 c-7 -7 -12 -23 -12 -36 0 -19 5 -23 23 -20 26 4 35 39 14
56 -10 9 -16 9 -25 0z"/>
<path d="M7777 8123 c-14 -4 -17 -13 -15 -41 3 -36 4 -37 51 -40 26 -2 47 -8
47 -14 0 -7 -15 -9 -41 -5 -57 8 -87 -5 -91 -40 -2 -22 -9 -29 -30 -31 -20 -2
-28 -9 -28 -23 0 -32 29 -79 49 -79 26 0 51 32 51 64 0 18 4 26 13 23 6 -2 11
-10 9 -17 -5 -20 8 -48 24 -54 21 -8 51 10 59 34 6 17 12 20 41 14 28 -5 40
-2 60 17 13 12 24 32 24 44 0 35 -21 85 -35 85 -7 0 -15 7 -19 15 -3 8 -11 15
-17 15 -7 0 -20 6 -28 14 -17 15 -95 28 -124 19z"/>
<path d="M8684 8106 c-9 -22 15 -48 40 -44 15 2 21 10 21 28 0 20 -6 26 -28
28 -18 2 -29 -2 -33 -12z"/>
<path d="M9387 8113 c-25 -25 19 -113 57 -113 32 0 31 65 -2 103 -15 17 -43
23 -55 10z"/>
<path d="M2982 8028 c-18 -18 -15 -36 9 -49 29 -15 59 12 43 39 -14 22 -36 26
-52 10z"/>
<path d="M5080 8000 c0 -5 9 -10 20 -10 11 0 20 5 20 10 0 6 -9 10 -20 10 -11
0 -20 -4 -20 -10z"/>
<path d="M4230 7975 c0 -8 9 -15 20 -15 11 0 20 2 20 5 0 2 -9 9 -20 15 -16 9
-20 8 -20 -5z"/>
<path d="M5942 7948 c3 -37 35 -50 57 -24 21 25 4 56 -30 56 -28 0 -30 -2 -27
-32z"/>
<path d="M2983 7913 c-18 -7 -16 -38 2 -53 23 -19 47 -4 43 27 -3 27 -20 37
-45 26z"/>
<path d="M5132 7901 c2 -7 7 -12 11 -12 12 1 9 15 -3 20 -7 2 -11 -2 -8 -8z"/>
<path d="M9796 7903 c-3 -3 -6 -24 -6 -45 0 -40 -14 -49 -39 -25 -10 10 -12 6
-9 -18 3 -26 8 -31 38 -35 26 -4 36 -10 38 -27 2 -14 14 -25 34 -32 53 -19 59
0 29 86 -9 28 -24 59 -31 68 -18 21 -46 36 -54 28z"/>
<path d="M2105 7887 c-16 -5 -36 -14 -43 -20 -20 -16 -45 -75 -38 -93 5 -14 9
-13 32 5 15 12 33 21 41 21 7 0 18 11 23 25 5 14 14 25 20 25 11 0 14 37 3 43
-5 2 -21 0 -38 -6z"/>
<path d="M9087 7863 c-11 -10 -8 -51 3 -58 17 -10 50 5 50 24 0 30 -35 53 -53
34z"/>
<path d="M9351 7816 c-13 -16 -5 -62 14 -86 7 -8 16 -30 20 -48 l7 -33 -35 6
c-50 10 -71 0 -90 -40 -9 -19 -23 -35 -31 -35 -8 0 -16 -6 -19 -12 -2 -7 -17
-13 -33 -13 -40 0 -46 -36 -9 -53 28 -13 34 -46 10 -56 -8 -3 -15 -16 -15 -30
0 -18 -10 -30 -40 -47 -23 -13 -43 -33 -46 -45 -8 -33 14 -94 34 -94 10 0 22
-8 29 -19 15 -24 61 -36 79 -20 12 10 21 8 44 -9 16 -12 42 -22 57 -22 44 0
57 -13 50 -50 -4 -18 -1 -45 7 -65 12 -29 12 -34 0 -39 -18 -7 -9 -82 12 -107
8 -8 14 -30 14 -47 0 -25 4 -32 20 -32 24 0 25 -8 4 -38 -25 -36 -14 -73 31
-104 37 -26 44 -27 95 -19 58 10 74 4 64 -22 -4 -12 -12 -14 -27 -8 -27 10
-47 4 -47 -15 0 -8 -7 -14 -15 -14 -8 0 -15 5 -15 10 0 6 -7 10 -15 10 -18 0
-19 -12 -4 -27 8 -8 8 -13 0 -17 -6 -4 -11 -17 -11 -29 0 -12 -4 -27 -8 -34
-10 -15 -66 93 -83 157 -14 57 -16 60 -34 53 -20 -7 -20 -77 0 -96 13 -13 13
-16 0 -27 -17 -14 -21 -80 -5 -80 6 0 26 -25 45 -55 30 -46 34 -58 23 -74 -9
-15 -8 -24 6 -46 11 -17 18 -46 18 -76 -1 -60 -9 -77 -27 -52 -20 27 -61 4
-74 -44 -15 -54 -14 -71 9 -85 14 -9 20 -24 20 -47 l0 -34 -23 21 c-13 12 -30
22 -38 22 -9 0 -26 11 -39 25 -20 21 -23 34 -21 79 1 32 -2 57 -9 61 -6 4 -15
17 -20 30 -11 28 -59 40 -80 19 -12 -12 -18 -10 -42 13 -28 26 -28 27 -9 47
11 12 26 46 34 76 l14 55 45 -3 c57 -3 78 16 54 50 -9 12 -16 29 -16 38 0 8
-15 28 -34 44 -34 28 -34 29 -18 54 25 38 18 143 -13 192 -27 43 -52 44 -84 4
-14 -18 -29 -24 -56 -24 -27 0 -38 -5 -42 -17 -2 -10 -15 -26 -28 -35 -21 -16
-27 -16 -52 -4 -64 32 -83 39 -90 33 -3 -4 2 -14 13 -21 20 -15 18 -23 -6 -26
-37 -6 -52 2 -62 31 -8 23 -16 29 -32 27 -30 -4 -34 -57 -6 -83 11 -10 20 -26
20 -35 0 -25 23 -31 82 -20 28 6 53 8 56 6 9 -10 -9 -57 -24 -63 -8 -3 -24 3
-35 13 -16 14 -24 16 -38 7 -15 -10 -23 -7 -47 18 -15 16 -47 38 -71 50 -24
11 -43 24 -43 29 0 4 -13 10 -30 12 -29 4 -90 -24 -90 -43 0 -14 -26 -10 -40
6 -20 24 -50 19 -50 -8 0 -31 9 -38 31 -26 16 8 19 6 19 -11 0 -11 -4 -20 -10
-20 -5 0 -10 -7 -10 -15 0 -10 -10 -15 -29 -15 -19 0 -42 -12 -67 -35 -43 -40
-52 -41 -117 -18 -46 17 -48 17 -68 -4 -17 -17 -20 -28 -15 -57 6 -33 10 -36
39 -36 18 0 43 7 55 16 20 14 24 14 38 0 8 -9 20 -16 26 -16 6 0 31 -10 55
-22 43 -22 46 -22 58 -5 11 16 16 16 34 6 17 -11 23 -10 39 4 24 22 38 21 61
-2 17 -17 18 -24 8 -53 -7 -18 -22 -43 -34 -56 -13 -12 -23 -28 -23 -35 0 -8
-16 -30 -35 -50 -38 -39 -41 -52 -23 -91 22 -49 78 -39 78 14 0 8 7 26 16 38
13 19 22 22 45 17 25 -6 30 -3 39 19 5 14 14 26 19 26 6 0 13 17 17 38 l7 37
11 -32 c15 -43 20 -47 48 -32 29 15 38 28 38 58 l0 24 25 -23 c14 -13 25 -28
25 -33 0 -5 8 -15 17 -22 15 -11 16 -17 3 -54 -10 -32 -11 -44 -2 -53 17 -17
15 -48 -2 -48 -8 0 -28 8 -46 18 -25 14 -30 22 -26 42 8 44 -6 55 -53 42 -62
-19 -85 -48 -58 -74 14 -13 11 -54 -5 -64 -5 -3 -17 1 -27 10 -22 20 -45 20
-65 0 -20 -19 -21 -68 -2 -83 8 -6 19 -25 26 -41 7 -17 20 -30 30 -30 14 0 18
-7 16 -32 -1 -29 2 -33 29 -36 19 -3 33 2 41 13 11 15 14 15 37 0 14 -9 28
-23 31 -31 4 -10 13 -13 27 -9 13 4 27 1 40 -11 23 -21 26 -106 4 -144 -8 -14
-15 -45 -15 -70 0 -36 -3 -41 -11 -27 -31 54 -78 82 -94 57 -10 -15 -43 55
-51 105 -5 35 -11 45 -31 50 -16 4 -31 0 -42 -10 -22 -19 -31 -19 -31 -1 0 26
-28 40 -56 27 -24 -11 -26 -16 -23 -69 4 -99 -3 -111 -43 -75 -14 12 -38 17
-97 17 -44 1 -83 4 -87 9 -4 4 -23 7 -42 7 -31 0 -34 -2 -28 -23 9 -39 -31
-69 -80 -61 -31 4 -45 1 -64 -14 -23 -19 -23 -20 -7 -45 21 -33 23 -77 2 -77
-8 0 -15 9 -15 19 0 11 -7 27 -16 36 -11 11 -14 24 -9 43 9 36 9 72 0 100 -6
19 -4 22 19 22 20 0 29 7 37 28 12 31 5 47 -33 70 -25 15 -28 15 -46 -1 -35
-32 -49 -22 -56 40 -6 54 -5 59 19 76 31 23 34 62 5 70 -30 8 -24 37 9 48 26
9 29 14 35 81 6 64 4 75 -16 104 -18 27 -30 34 -56 34 -28 0 -35 -5 -43 -30
-12 -33 -42 -40 -57 -13 -14 24 -44 9 -40 -20 2 -19 -31 -67 -47 -67 -12 0 -3
48 10 54 22 8 18 28 -10 59 -38 40 -53 34 -79 -27 -25 -59 -21 -92 11 -108 18
-9 30 -23 33 -43 5 -26 19 -40 65 -59 6 -2 -7 -20 -28 -40 l-37 -35 -24 22
c-13 12 -25 31 -27 41 -3 12 -16 23 -34 28 -29 7 -30 9 -27 53 5 63 -7 76 -59
61 -23 -7 -45 -20 -51 -29 -5 -9 -20 -17 -34 -17 -19 0 -28 -7 -35 -30 -8 -22
-17 -30 -34 -30 -13 0 -31 -10 -39 -22 -16 -22 -16 -22 -16 10 0 26 6 35 33
48 17 9 36 23 40 30 4 8 14 14 21 14 40 0 57 70 21 84 -8 3 -15 17 -15 32 0
15 -7 32 -16 39 -16 11 -16 14 2 44 16 28 17 33 4 41 -10 7 -18 5 -26 -5 -18
-24 -21 -18 -29 50 -6 58 -9 66 -31 71 -30 8 -54 -11 -51 -39 1 -16 -4 -23
-21 -25 -34 -5 -38 -29 -8 -57 14 -13 26 -28 26 -32 0 -17 -42 -44 -63 -41
-19 3 -22 -1 -21 -34 1 -26 -3 -38 -12 -38 -8 0 -14 6 -14 14 0 8 -11 27 -24
43 -13 15 -27 42 -30 60 -4 17 -14 37 -22 44 -22 18 -17 29 14 29 38 0 42 6
30 43 -15 44 -32 61 -108 112 -49 33 -68 52 -75 77 -13 43 -45 49 -74 12 -16
-20 -33 -28 -73 -33 l-53 -6 -6 -42 c-3 -24 -7 -45 -10 -48 -5 -4 -87 -6 -174
-3 -59 2 -93 -9 -101 -35 -9 -29 -22 -37 -61 -37 -18 0 -33 -4 -33 -10 0 -5
-4 -10 -10 -10 -5 0 -10 7 -10 16 0 9 -22 37 -48 63 -27 25 -57 61 -67 79 -20
33 -26 35 -82 32 l-33 -2 0 55 c0 32 -5 59 -12 64 -27 21 -177 35 -209 20 -13
-6 -18 -2 -22 20 -8 40 2 48 29 22 13 -12 24 -18 24 -11 0 6 9 13 19 17 26 8
35 39 21 65 -9 17 -17 20 -41 15 -25 -6 -36 -2 -59 22 -21 20 -27 34 -23 51 8
33 -4 70 -25 74 -13 3 -17 13 -17 48 l0 44 -57 2 c-31 1 -71 9 -89 18 -18 9
-45 16 -61 16 -15 0 -28 5 -28 10 0 6 6 10 13 10 7 0 27 12 45 28 31 25 33 30
27 68 -5 30 -14 45 -30 52 -17 8 -21 17 -18 35 4 18 -2 31 -16 43 -24 21 -27
42 -7 50 17 6 50 89 41 103 -7 12 -33 4 -60 -19 -19 -17 -57 -29 -102 -33 -12
-1 -39 -20 -60 -43 l-38 -41 -67 5 c-64 4 -68 3 -79 -21 -15 -32 -7 -54 25
-68 32 -15 91 11 99 42 5 18 11 21 40 15 25 -5 38 -2 47 9 11 13 15 12 37 -9
33 -33 23 -47 -22 -35 -31 9 -40 7 -65 -13 -29 -23 -47 -69 -35 -88 9 -15 45
-12 51 4 6 16 88 76 104 76 6 0 19 -8 30 -18 19 -17 19 -19 -4 -67 -13 -27
-22 -54 -19 -62 6 -15 -26 -103 -37 -103 -4 0 -11 -12 -14 -26 -8 -32 8 -54
40 -54 13 0 24 -5 24 -10 0 -6 -10 -8 -24 -4 -39 10 -64 -4 -72 -39 -4 -18
-15 -48 -25 -67 -11 -19 -19 -41 -19 -48 0 -10 -7 -12 -25 -8 -24 6 -25 5 -13
-16 7 -13 21 -29 31 -36 23 -18 22 -49 -3 -57 -21 -7 -27 -39 -10 -50 6 -4 5
-15 -2 -30 -8 -19 -8 -28 3 -41 12 -14 14 -14 26 2 7 9 10 27 7 39 -7 29 19
40 39 17 10 -11 15 -34 14 -62 -2 -38 -5 -45 -24 -48 -31 -5 -73 -80 -73 -131
0 -32 5 -43 28 -60 16 -11 48 -21 73 -23 71 -5 42 -23 -37 -23 -54 0 -77 -4
-91 -17 -11 -10 -25 -18 -31 -18 -15 0 -16 36 -2 45 6 3 10 15 10 25 0 11 9
37 21 59 25 48 23 104 -4 109 -10 2 -29 1 -42 -2 -19 -5 -24 -14 -27 -44 -3
-34 -5 -37 -30 -34 -40 5 -47 -3 -38 -42 6 -27 3 -39 -15 -62 l-23 -29 -18 23
-19 22 -43 -39 c-24 -22 -42 -46 -40 -53 3 -7 21 -13 42 -14 20 -1 39 -4 42
-7 13 -13 -21 -110 -43 -124 -13 -9 -23 -25 -23 -39 0 -13 -4 -24 -10 -24 -5
0 -14 -19 -20 -41 -11 -38 -51 -89 -71 -89 -17 0 -9 72 10 97 23 28 47 123 38
147 -4 9 -18 16 -32 16 -21 0 -29 -8 -46 -47 -11 -25 -17 -52 -15 -60 3 -7 -6
-34 -20 -61 -18 -34 -26 -66 -28 -117 -2 -38 -10 -83 -19 -100 -49 -96 -51
-117 -9 -130 27 -8 32 -14 32 -41 0 -33 22 -60 40 -49 13 8 40 72 40 95 0 11
21 32 53 52 69 44 66 43 77 14 5 -15 22 -31 36 -36 25 -10 26 -12 10 -29 -9
-9 -16 -29 -16 -44 0 -21 -5 -26 -27 -29 -22 -2 -28 -8 -28 -27 0 -13 7 -28
16 -34 26 -16 49 -1 49 31 0 26 3 28 35 28 44 -1 44 0 1 -83 -9 -17 -16 -39
-16 -48 0 -9 -11 -31 -25 -47 -32 -38 -28 -53 13 -53 25 0 34 -5 41 -27 12
-34 5 -41 -24 -22 -19 13 -24 13 -34 0 -9 -10 -31 -15 -72 -14 -33 0 -65 -4
-72 -11 -17 -17 -77 -14 -77 3 0 8 5 18 10 21 13 8 13 55 1 55 -18 0 -49 66
-55 119 -4 30 -11 62 -16 71 -12 22 -45 31 -59 17 -17 -17 -14 -102 4 -117 22
-18 18 -44 -7 -55 -16 -7 -23 -18 -23 -37 1 -20 -4 -28 -16 -28 -21 0 -36 -18
-41 -50 -1 -14 -11 -26 -20 -28 -12 -2 -17 5 -20 30 -3 32 -4 33 -45 31 -27
-1 -43 3 -43 10 0 7 -4 7 -12 -2 -11 -10 -10 -15 3 -24 8 -7 18 -20 22 -29 4
-12 17 -18 36 -18 26 0 29 -3 33 -40 3 -32 0 -40 -13 -40 -25 0 -69 -39 -69
-61 0 -12 -7 -19 -19 -19 -26 0 -51 -26 -51 -55 0 -29 22 -38 47 -20 21 16 53
20 53 6 0 -5 -12 -19 -26 -30 -17 -13 -24 -28 -22 -43 4 -30 29 -34 59 -9 21
17 23 22 11 41 -19 31 -8 36 33 15 34 -19 36 -19 86 0 64 22 89 43 89 71 0 12
9 32 20 45 l19 24 1 -26 c0 -15 -6 -32 -14 -38 -8 -6 -19 -32 -25 -57 -11 -45
-79 -124 -106 -124 -7 0 -18 -6 -24 -14 -16 -19 -68 -28 -90 -14 -21 13 -49 5
-57 -17 -4 -8 1 -30 10 -49 9 -19 16 -37 16 -40 0 -3 -18 -24 -40 -48 -22 -24
-40 -50 -40 -59 0 -9 -7 -22 -15 -29 -19 -16 -19 -59 0 -66 8 -3 29 1 46 10
40 20 39 20 39 -2 0 -70 103 -46 116 26 4 21 12 48 19 62 7 14 15 50 19 80 4
30 11 59 16 65 5 5 10 26 12 45 5 59 21 34 22 -36 1 -50 -3 -72 -15 -88 -12
-15 -14 -26 -8 -38 10 -19 -1 -50 -28 -76 -7 -7 -13 -22 -13 -31 0 -10 -7 -24
-15 -31 -18 -15 -20 -51 -3 -68 7 -7 23 -12 35 -12 20 0 22 -3 13 -19 -15 -29
-2 -51 30 -51 15 0 33 -7 40 -15 25 -30 59 -13 74 38 3 10 15 17 31 17 20 0
29 8 41 35 18 44 24 44 22 2 -2 -45 6 -54 52 -68 31 -10 37 -15 29 -25 -6 -7
-13 -40 -16 -72 -5 -54 -4 -59 20 -75 15 -9 44 -35 67 -58 38 -39 42 -40 59
-25 16 15 19 15 31 1 31 -38 130 10 130 63 0 15 5 44 11 65 l10 38 28 -33 c15
-18 55 -61 89 -96 59 -62 61 -65 62 -120 1 -31 3 -83 3 -115 2 -46 -2 -61 -15
-71 -13 -9 -18 -27 -18 -60 0 -38 7 -56 33 -91 17 -23 37 -51 44 -61 10 -18
12 -18 28 -3 15 15 19 14 48 -12 22 -21 43 -29 76 -31 l46 -3 -33 -20 c-19
-11 -42 -37 -53 -57 l-19 -37 22 -15 c12 -9 28 -16 34 -16 23 0 64 42 64 66 0
13 3 24 6 24 16 0 44 -23 44 -36 0 -8 15 -35 33 -59 24 -34 41 -46 67 -51 41
-7 121 -74 120 -101 0 -10 -2 -49 -3 -86 l-3 -68 60 -36 c39 -24 79 -39 111
-42 l50 -6 -2 -37 c-1 -21 -11 -46 -22 -57 -20 -20 -20 -20 -26 10 -8 35 -46
55 -75 39 -23 -12 -77 -13 -84 -1 -3 5 1 11 9 15 28 10 17 52 -20 80 -19 15
-35 33 -35 40 0 7 -13 22 -28 33 l-29 21 -31 -29 c-31 -29 -39 -59 -26 -93 3
-9 24 -18 50 -22 24 -3 44 -10 44 -15 0 -5 -13 -6 -29 -3 -16 3 -38 1 -51 -6
-18 -9 -25 -8 -41 6 -16 14 -24 15 -44 6 -14 -6 -25 -20 -25 -29 0 -18 -50
-73 -67 -73 -13 -1 -69 -53 -82 -77 -6 -12 -9 -28 -6 -35 3 -7 -9 -21 -27 -32
l-33 -18 38 -33 c20 -17 37 -35 37 -39 0 -13 -44 -5 -62 11 -17 15 -20 15 -34
1 -37 -36 19 -108 85 -108 23 0 31 -3 23 -9 -8 -4 -44 -6 -81 -3 -63 4 -69 3
-85 -19 -22 -32 -21 -39 14 -76 37 -39 40 -73 7 -73 -30 0 -67 -42 -67 -76 0
-23 3 -26 30 -22 17 3 31 1 32 -4 5 -27 0 -33 -32 -38 l-35 -5 3 -65 c2 -36 7
-69 13 -74 19 -20 10 -45 -18 -48 -21 -2 -29 -10 -35 -35 -7 -25 -16 -34 -41
-41 -18 -5 -43 -5 -59 1 -23 7 -26 12 -18 28 6 10 15 19 19 19 13 0 21 27 15
45 -9 22 -41 18 -54 -5 -8 -15 -21 -20 -54 -20 -57 0 -75 -20 -52 -55 13 -20
25 -25 56 -25 l39 0 -6 -35 -6 -35 49 0 c89 0 122 10 133 39 16 42 35 59 74
66 36 7 87 55 87 83 0 15 29 42 45 42 17 0 15 -104 -3 -122 -6 -6 -12 -22 -12
-34 0 -13 -8 -25 -17 -29 -10 -3 -27 -20 -39 -38 -11 -18 -27 -30 -35 -28 -45
14 -89 11 -125 -7 -21 -10 -68 -22 -102 -26 -50 -5 -72 -12 -102 -36 -44 -35
-73 -38 -115 -10 -16 11 -43 20 -60 21 -43 1 -65 12 -80 40 -12 22 -11 26 12
45 23 18 24 23 13 45 -17 33 -51 69 -66 69 -6 0 -15 11 -18 25 -3 13 -16 30
-28 36 l-21 11 23 18 c29 22 21 48 -26 78 -51 32 -89 30 -102 -7 -8 -23 -15
-28 -31 -24 -12 3 -21 13 -21 22 0 24 -20 41 -46 41 -28 0 -36 -12 -36 -55 0
-31 -3 -34 -31 -37 -29 -3 -32 -6 -32 -38 0 -34 1 -35 42 -36 23 0 48 -6 57
-13 8 -7 25 -9 40 -5 22 5 26 3 26 -15 0 -12 -7 -24 -15 -28 -9 -3 -22 -20
-29 -37 -18 -42 2 -84 44 -93 28 -5 30 -9 30 -49 0 -33 4 -44 19 -49 11 -3 21
-16 23 -28 2 -15 13 -25 35 -32 60 -17 36 -40 -32 -30 -42 7 -44 8 -38 36 5
26 3 29 -21 29 -21 0 -26 5 -26 25 0 53 -92 108 -126 76 -5 -5 -25 -11 -44
-13 -29 -2 -35 -7 -35 -27 0 -17 10 -30 35 -44 19 -10 45 -28 58 -40 20 -19
27 -20 54 -9 17 6 35 9 39 6 14 -8 10 -34 -5 -34 -7 0 -25 -11 -39 -24 l-26
-24 -37 18 c-26 14 -42 16 -54 10 -13 -7 -21 -5 -30 5 -7 8 -29 15 -50 15 -25
0 -50 9 -78 30 -35 25 -51 30 -98 30 -42 0 -60 -4 -70 -17 -21 -28 -16 -43 19
-58 17 -8 28 -15 22 -15 -28 -4 -111 3 -115 9 -16 22 -102 53 -162 58 -58 5
-68 8 -68 25 0 34 -48 68 -96 68 -54 0 -74 8 -74 29 0 24 -20 41 -47 41 -33 0
-32 46 2 62 28 13 42 45 26 61 -6 6 -32 14 -58 17 -41 4 -49 9 -57 33 -7 20
-7 33 2 45 13 18 15 22 28 67 8 24 16 31 45 35 47 8 59 17 59 44 0 29 18 46
51 46 19 0 28 6 33 23 12 47 5 66 -47 121 -42 45 -58 56 -84 56 -18 0 -35 -5
-39 -11 -10 -16 -24 10 -24 45 0 16 -8 34 -17 41 -14 11 -15 16 -3 44 15 36
14 37 -23 46 -23 6 -29 4 -34 -14 -7 -28 -17 -27 -54 10 -36 35 -68 35 -85 2
-15 -31 -24 -18 -24 32 0 49 -11 57 -107 75 -35 7 -63 17 -63 22 0 5 -10 8
-22 6 -18 -2 -23 -9 -21 -31 1 -15 9 -34 17 -43 9 -8 16 -21 16 -29 0 -7 15
-20 32 -28 41 -20 143 -123 130 -131 -5 -3 -15 1 -22 9 -14 17 -56 20 -64 6
-9 -14 12 -61 27 -61 7 0 29 -22 49 -49 23 -30 50 -54 70 -61 18 -6 44 -25 57
-42 21 -26 22 -31 9 -39 -8 -5 -23 -20 -32 -34 -14 -21 -15 -29 -5 -41 15 -19
11 -22 -34 -26 -33 -3 -40 1 -55 27 -22 38 -31 45 -63 45 -30 0 -69 -33 -69
-58 0 -23 19 -42 42 -42 13 0 19 -11 24 -41 4 -22 13 -43 20 -46 9 -3 13 -24
12 -64 l-1 -60 -23 22 c-19 18 -21 25 -12 50 15 45 -13 99 -52 99 -34 0 -43
-18 -21 -43 14 -17 14 -20 -2 -32 -9 -6 -17 -19 -17 -28 0 -19 -17 -32 -22
-16 -2 5 -23 13 -46 16 -38 5 -44 3 -49 -16 -6 -25 -31 -28 -40 -4 -9 24 -39
52 -97 90 -56 37 -126 45 -162 18 -25 -19 -127 -20 -143 -1 -6 7 -25 16 -42
20 -17 3 -43 19 -57 36 -21 23 -35 30 -64 30 -30 0 -39 5 -50 27 -7 16 -23 32
-36 38 -12 5 -25 18 -28 27 -3 10 -9 18 -13 18 -4 0 -13 11 -19 25 -8 16 -20
25 -35 25 -34 0 -37 -7 -21 -45 19 -46 18 -55 -6 -55 -21 0 -140 109 -140 128
0 6 -9 16 -20 22 -11 6 -20 19 -20 30 0 30 -38 87 -62 94 -28 7 -48 -10 -48
-40 0 -19 -5 -24 -26 -24 -14 0 -24 3 -22 8 2 4 10 21 17 37 7 17 17 38 22 47
16 31 -25 89 -50 73 -5 -2 -16 -26 -26 -52 -10 -26 -19 -50 -21 -52 -7 -8
-144 112 -144 126 0 3 -10 27 -21 52 -12 25 -29 62 -38 81 -9 19 -30 55 -47
80 -16 25 -33 53 -37 63 -3 9 -11 17 -17 17 -5 0 -10 6 -10 13 0 7 -14 32 -31
55 -17 23 -27 46 -24 52 11 18 -15 40 -46 40 -16 0 -37 7 -46 15 -10 9 -38 33
-63 55 -25 22 -51 40 -57 40 -7 0 -13 10 -13 23 0 28 -26 67 -46 67 -10 0 -14
13 -14 53 0 29 -5 58 -12 65 -18 18 -65 15 -73 -5 -6 -16 -8 -15 -16 5 -9 23
-43 30 -54 12 -4 -6 -15 -1 -26 14 -23 29 -24 42 -4 50 8 3 15 14 15 25 0 22
-49 121 -60 121 -13 0 -28 -24 -33 -50 l-4 -25 -2 26 c0 15 -7 29 -15 32 -7 3
-17 22 -21 43 -3 20 -18 53 -33 72 -25 33 -25 35 -8 48 11 7 23 15 29 17 17 5
-13 126 -34 138 -14 7 -21 5 -29 -10 -5 -11 -10 -27 -10 -36 0 -9 -4 -13 -10
-10 -5 3 -10 16 -10 28 0 13 -6 31 -13 42 -8 11 -19 42 -26 68 -11 45 -10 49
11 67 20 15 21 21 10 41 -6 13 -16 49 -21 79 -24 136 -31 163 -42 176 -8 10
-7 17 6 31 42 42 -14 203 -70 203 -25 0 -25 1 -25 88 0 108 7 137 27 121 10
-9 17 -9 25 -1 12 12 -15 117 -33 128 -6 3 -21 -2 -35 -11 -33 -21 -59 -13
-45 14 8 13 8 36 0 73 -6 29 -10 92 -9 140 0 52 -3 89 -10 93 -32 20 -69 -80
-50 -130 7 -17 14 -77 16 -135 2 -58 9 -125 14 -150 6 -25 14 -93 19 -151 5
-59 13 -115 19 -125 5 -11 12 -48 16 -83 3 -35 10 -69 15 -75 4 -6 11 -36 15
-66 4 -30 13 -77 20 -105 8 -27 19 -72 26 -100 22 -97 39 -160 49 -192 6 -18
16 -48 22 -65 6 -18 14 -49 18 -69 9 -40 48 -126 62 -135 5 -3 9 -22 9 -43 0
-22 6 -44 15 -51 8 -7 15 -20 15 -30 0 -10 16 -51 36 -91 20 -41 42 -87 49
-104 42 -92 55 -125 55 -134 0 -5 4 -11 8 -13 5 -1 23 -32 41 -68 31 -63 40
-81 61 -117 5 -10 16 -31 24 -48 8 -16 31 -57 50 -90 20 -33 41 -71 48 -85 7
-14 16 -29 20 -35 18 -23 118 -177 118 -181 0 -2 18 -29 41 -61 22 -32 56 -80
75 -108 20 -27 46 -63 60 -80 13 -16 49 -64 79 -105 31 -41 59 -77 63 -80 4
-3 27 -30 52 -60 88 -106 315 -340 331 -340 5 0 9 -7 9 -15 0 -8 3 -15 8 -15
4 0 32 -24 63 -53 80 -74 170 -151 182 -156 6 -2 23 -17 38 -32 16 -16 31 -29
34 -29 3 0 13 -7 23 -16 9 -8 51 -40 92 -69 41 -29 83 -61 93 -69 9 -9 19 -16
22 -16 6 0 65 -40 75 -50 11 -11 70 -50 75 -50 7 0 63 -39 83 -57 7 -7 18 -13
23 -13 9 0 68 -38 79 -51 6 -7 53 -32 90 -49 13 -6 27 -14 30 -18 3 -4 34 -22
70 -40 36 -17 81 -41 100 -51 67 -38 208 -101 224 -101 9 0 16 -4 16 -9 0 -5
10 -13 23 -16 12 -4 36 -13 52 -20 17 -8 53 -23 80 -35 28 -12 62 -28 77 -36
14 -8 35 -14 46 -14 11 0 25 -7 32 -15 7 -8 22 -15 34 -15 11 -1 39 -9 61 -20
22 -11 47 -19 55 -20 9 0 20 -4 26 -10 11 -11 181 -59 239 -67 22 -3 44 -9 50
-14 5 -5 19 -9 31 -9 12 0 37 -6 55 -14 19 -8 68 -18 109 -21 41 -4 84 -12 95
-18 11 -6 38 -14 60 -18 22 -4 60 -12 85 -17 25 -6 125 -18 224 -28 139 -14
185 -15 209 -6 19 7 35 8 42 2 21 -17 270 -34 520 -34 268 -1 519 16 599 39
27 8 67 15 88 15 26 0 45 7 60 22 19 19 35 23 98 24 88 2 150 16 166 39 9 12
21 14 52 9 32 -5 42 -3 53 13 8 11 24 23 37 27 16 5 22 15 22 36 0 15 7 30 15
34 23 9 18 44 -11 71 -20 19 -23 27 -15 43 7 14 18 18 41 14 43 -6 90 15 90
42 0 12 9 29 20 39 14 12 20 29 20 57 0 38 2 40 30 40 20 0 30 5 30 15 0 10
10 15 30 15 24 0 33 6 42 28 l11 27 7 -27 c13 -45 19 -49 46 -31 31 20 30 59
-2 56 -12 -1 -32 9 -44 22 -13 14 -27 25 -32 25 -18 0 -68 64 -58 74 6 6 10
27 10 48 0 34 3 38 26 38 42 0 66 18 62 48 -3 23 1 28 26 32 28 5 38 16 51 55
6 18 8 17 22 -10 9 -16 22 -34 29 -40 7 -5 14 -21 16 -35 4 -30 40 -39 64 -16
8 9 22 16 29 16 8 0 23 10 34 22 l20 21 35 -24 c28 -19 35 -30 34 -54 -1 -17
4 -41 11 -54 11 -19 10 -26 -4 -41 -22 -24 -16 -63 13 -75 18 -8 22 -18 22
-52 0 -50 12 -60 46 -38 27 17 28 30 9 107 -7 26 -5 28 24 28 18 0 37 -4 44
-10 68 -55 77 -60 116 -60 30 0 44 -5 53 -20 14 -22 72 -28 84 -9 3 6 1 29 -6
50 -12 35 -11 42 3 56 15 15 18 15 36 -8 14 -17 17 -29 10 -42 -14 -24 -3 -37
31 -37 21 0 33 8 47 30 9 16 22 30 29 30 6 0 23 9 37 20 15 12 40 20 64 20 21
0 44 4 52 9 17 11 7 41 -14 41 -8 0 -15 5 -15 10 0 6 9 10 19 10 10 0 21 6 24
14 3 8 14 12 24 10 10 -3 37 5 58 18 90 53 115 70 115 78 0 5 10 12 23 15 12
4 31 15 42 25 11 10 31 20 45 22 15 2 35 18 53 46 16 23 59 66 95 96 37 29 82
67 99 83 18 17 40 33 48 37 22 8 30 36 17 57 -17 26 -15 43 6 62 25 23 40 21
44 -6 2 -13 11 -23 23 -25 27 -4 80 45 89 81 3 15 13 27 21 27 8 0 29 16 46
35 18 19 37 35 44 35 6 0 41 29 78 64 68 65 82 97 51 114 -25 14 -10 52 33 85
l37 27 13 -31 c8 -20 17 -28 25 -23 34 19 48 40 48 71 0 37 48 133 67 133 20
0 53 42 79 100 14 30 34 73 44 95 10 22 24 58 30 80 7 22 21 58 31 80 10 22
21 57 24 78 5 28 11 37 26 37 14 0 21 -9 26 -30 4 -25 10 -30 34 -30 37 0 43
13 24 49 -21 42 -19 49 18 53 27 3 32 7 35 33 5 47 34 129 50 141 12 9 12 14
1 32 -12 19 -10 24 14 50 15 15 27 37 27 49 0 12 8 23 20 26 21 5 27 31 10 42
-18 11 -11 32 26 71 83 89 104 158 54 171 -32 9 -23 22 18 25 29 2 37 7 37 23
0 15 -8 21 -34 23 -23 2 -44 14 -66 38 -21 22 -42 34 -59 34 -31 0 -33 11 -6
35 24 21 26 53 5 61 -23 9 -18 24 9 24 16 0 27 7 31 21 8 25 -2 139 -15 158
-11 18 -2 41 17 41 7 0 22 13 31 30 22 39 52 40 52 1 0 -16 -7 -34 -15 -41
-24 -20 -19 -150 6 -150 17 0 57 78 64 124 4 25 11 49 16 52 5 3 9 15 9 28 0
26 17 46 41 46 30 0 41 100 15 135 -14 19 -15 19 -24 -5 -6 -14 -13 -33 -16
-42 -3 -10 -14 -18 -25 -18 -10 0 -21 -7 -25 -15 -8 -22 -26 -18 -26 5 0 10
16 32 35 47 31 25 35 33 35 76 0 26 4 47 8 47 5 0 13 10 19 22 7 15 19 22 39
23 29 0 29 1 28 56 -1 69 -12 115 -24 103 -4 -5 -10 -20 -12 -33 -6 -46 -28
-36 -28 13 0 43 1 45 33 48 29 3 32 6 29 33 -1 17 -4 48 -5 70 -6 81 -61 141
-99 108 -16 -14 -18 -13 -30 12 -11 25 -10 29 10 43 12 8 22 24 22 37 0 12 9
30 21 41 13 12 18 25 14 41 -6 26 47 93 74 93 29 0 41 19 29 46 -9 20 -8 28
10 47 12 13 22 33 22 44 0 11 6 26 14 33 8 6 16 26 18 43 3 29 6 32 35 29 28
-3 33 0 39 24 11 43 -3 193 -21 220 -26 40 -65 24 -65 -27 0 -15 -7 -32 -15
-39 -8 -7 -15 -22 -15 -35 0 -29 -9 -36 -30 -25 -28 15 -35 -19 -10 -42 21
-20 19 -38 -5 -38 -16 0 -25 -22 -25 -64 0 -22 -8 -40 -25 -56 -14 -13 -31
-42 -37 -64 -7 -23 -18 -47 -25 -54 -7 -7 -13 -31 -13 -51 0 -21 -6 -44 -14
-50 -8 -7 -12 -21 -9 -32 4 -13 -3 -28 -21 -44 -14 -13 -26 -33 -26 -43 0 -11
-7 -25 -15 -32 -8 -7 -15 -20 -15 -29 0 -9 -4 -22 -9 -30 -7 -11 -12 -7 -24
15 -13 25 -16 26 -22 12 -10 -25 -20 -22 -33 8 -16 33 -1 60 37 69 31 7 53 42
45 73 -5 16 1 20 36 26 l42 7 -6 37 c-15 85 -18 122 -8 122 5 0 12 -7 16 -15
6 -17 32 -20 41 -5 4 6 0 22 -9 35 -22 33 -20 48 3 40 14 -4 23 0 30 14 29 53
-3 88 -71 77 -21 -4 -48 -2 -58 4 -14 8 -26 8 -40 0 -16 -8 -20 -8 -20 3 0 22
-34 55 -84 82 -50 27 -86 31 -117 15 -23 -13 -24 -29 -2 -45 19 -14 12 -42
-12 -51 -9 -4 -24 1 -33 10 -10 8 -29 17 -43 18 -21 3 -24 -2 -27 -30 -3 -29
0 -35 27 -45 39 -14 43 -36 14 -64 l-23 -22 -37 35 c-34 31 -36 36 -20 45 25
15 24 79 -3 86 -15 4 -18 11 -14 32 6 31 -13 52 -63 69 -24 8 -36 7 -50 -3
-10 -8 -30 -11 -45 -8 -48 10 -91 -19 -113 -76 -22 -58 -35 -65 -35 -21 0 18
-6 33 -15 36 -9 4 -15 19 -15 39 0 26 -7 37 -35 56 -32 22 -48 59 -25 59 6 0
10 -4 10 -10 0 -5 16 -10 35 -10 19 0 35 4 35 10 0 22 -24 59 -42 64 -17 4
-19 10 -13 33 3 15 13 35 21 44 8 8 14 22 14 30 1 11 3 10 13 -3 7 -9 26 -18
42 -20 28 -3 30 -6 27 -38 -2 -19 -10 -42 -18 -51 -28 -31 -11 -79 29 -79 11
0 21 -9 24 -21 5 -19 11 -21 51 -15 55 7 92 39 92 77 0 29 14 43 40 44 17 0
18 36 3 95 -7 28 -14 36 -36 38 -19 2 -27 9 -27 23 0 11 -23 42 -51 69 -50 48
-56 70 -19 70 26 0 32 14 20 44 -11 31 -53 36 -69 9 -18 -32 -25 -3 -8 32 9
20 17 44 17 54 0 10 7 21 14 24 8 3 18 22 21 41 4 19 13 40 21 47 8 6 14 19
14 29 0 9 9 29 20 43 11 14 23 40 27 59 3 18 12 41 18 51 11 16 13 15 19 -14
3 -17 6 -44 6 -60 0 -26 4 -29 30 -29 36 0 52 27 27 45 -18 13 -23 40 -8 49 5
3 14 -1 20 -8 16 -19 88 -31 105 -17 16 14 26 4 26 -26 0 -30 26 -40 54 -23
11 8 38 22 59 32 24 12 37 25 37 39 0 27 -14 30 -91 21 -65 -8 -119 3 -134 28
-3 5 -17 10 -31 10 -22 0 -24 3 -18 23 3 12 13 29 20 38 8 8 14 26 14 40 0 13
9 38 20 54 23 35 25 62 6 84 -17 20 -29 81 -15 81 5 0 12 -7 15 -15 8 -20 34
-19 34 2 0 9 -8 34 -17 56 -17 38 -19 39 -61 34 -23 -2 -45 0 -48 5 -4 6 -19
7 -35 4 -22 -4 -29 -2 -29 10 0 9 -16 34 -35 57 -39 45 -40 60 -7 65 23 4 29
17 12 27 -5 3 -10 23 -10 43 0 20 -7 46 -15 56 -16 22 -20 66 -6 66 5 0 14 -7
21 -15 12 -14 15 -14 30 0 15 14 18 14 30 0 22 -26 63 -15 75 20 5 16 18 38
28 47 12 13 17 34 17 72 0 30 4 57 9 60 5 3 12 31 16 62 4 32 12 65 18 75 8
13 8 25 -2 45 -13 30 -3 44 32 44 19 0 22 17 7 54 -7 20 -17 26 -39 26 -15 0
-34 7 -42 16 -9 11 -22 14 -41 10 -16 -3 -28 -1 -28 5 0 5 -12 21 -26 36 l-25
25 -23 -22 -24 -21 -11 31 c-9 28 -14 31 -43 28 l-33 -3 -3 -67 c-2 -48 1 -70
12 -80 12 -11 12 -15 -3 -29 -15 -14 -18 -13 -42 12 -15 16 -28 44 -31 67 -5
32 -2 40 16 48 13 5 21 19 22 35 1 14 9 37 18 51 17 27 17 27 -24 82 -45 60
-51 64 -69 42z"/>
<path d="M7840 7783 c0 -45 -19 -57 -43 -27 -25 33 -61 29 -65 -6 -2 -19 7
-35 33 -58 39 -37 45 -67 14 -75 -18 -5 -20 -12 -18 -54 l3 -48 -34 0 c-32 0
-35 -3 -38 -32 -2 -23 2 -34 16 -42 32 -17 61 -3 64 33 5 47 40 48 81 2 25
-28 37 -35 55 -30 26 7 28 33 7 74 -19 36 -37 38 -58 8 l-16 -23 -1 30 c0 17
-3 40 -6 52 -5 17 1 25 25 38 41 21 50 47 42 120 -6 56 -8 60 -33 63 -25 3
-28 0 -28 -25z"/>
<path d="M4002 7748 c-17 -17 -15 -32 8 -53 20 -18 21 -18 35 1 16 22 17 26 9
48 -7 19 -35 21 -52 4z"/>
<path d="M3012 7740 c-22 -9 -22 -11 -7 -34 30 -46 69 -40 63 10 -3 31 -20 38
-56 24z"/>
<path d="M5890 7721 c-52 -14 -19 -70 33 -57 20 5 27 13 27 30 0 18 -22 42
-33 35 -1 -1 -13 -4 -27 -8z"/>
<path d="M4126 7675 c-21 -27 -32 -34 -49 -30 -16 4 -30 -2 -47 -20 -21 -23
-23 -28 -11 -47 11 -17 11 -22 -1 -29 -7 -5 -16 -9 -20 -9 -5 0 -8 -11 -8 -25
0 -18 -5 -25 -19 -25 -40 0 -56 -61 -17 -68 22 -5 36 13 36 46 0 15 6 22 19
22 33 0 42 -51 15 -82 -14 -14 -15 -20 -4 -33 10 -12 10 -21 2 -38 -7 -12 -16
-35 -22 -50 -6 -17 -15 -25 -21 -21 -6 3 -28 1 -50 -6 -31 -10 -44 -10 -69 0
-24 10 -34 10 -43 1 -9 -10 -4 -19 22 -43 31 -28 38 -30 82 -24 39 5 49 4 49
-7 0 -20 -38 -29 -63 -15 -16 8 -23 7 -34 -8 -7 -10 -13 -26 -13 -37 0 -10 -4
-16 -10 -12 -5 3 -7 12 -4 19 7 19 -19 36 -45 29 -28 -7 -24 -34 7 -48 12 -5
22 -13 22 -18 0 -4 -20 -27 -43 -51 -48 -47 -74 -115 -56 -148 5 -9 7 -29 3
-42 -9 -38 10 -63 54 -70 34 -5 40 -10 46 -37 10 -51 7 -76 -9 -83 -18 -7 -20
-42 -2 -50 8 -3 7 -8 -5 -16 -22 -13 -22 -26 -4 -62 11 -22 12 -29 2 -35 -6
-5 -22 -21 -35 -38 -12 -16 -35 -32 -49 -35 -26 -5 -27 -7 -27 -83 0 -60 -3
-78 -15 -82 -8 -3 -26 -21 -39 -40 -13 -20 -41 -49 -63 -66 l-38 -31 0 30 c0
16 -6 35 -14 41 -18 15 -18 136 0 170 18 34 18 122 0 147 -13 17 -16 17 -29 4
-8 -8 -22 -46 -32 -85 -12 -46 -28 -80 -47 -100 -36 -40 -35 -59 4 -94 24 -21
33 -38 34 -64 1 -42 18 -67 45 -67 21 0 24 -11 9 -26 -6 -6 -17 -35 -24 -65
-18 -68 -4 -124 37 -145 31 -17 42 -43 22 -51 -10 -3 -32 12 -62 43 -42 44
-47 54 -47 96 -1 31 4 50 12 53 8 3 12 17 10 37 -3 29 -6 33 -33 33 -28 0 -30
-3 -33 -40 -2 -22 -9 -44 -15 -50 -7 -5 -27 -32 -45 -59 -36 -56 -40 -52 -44
49 l-3 70 -37 3 c-25 2 -38 -1 -38 -9 0 -7 -7 -20 -15 -29 -13 -14 -12 -20 10
-52 27 -40 26 -42 -21 -52 -28 -6 -35 -3 -54 24 -17 25 -19 34 -10 45 19 23 4
45 -29 45 -27 0 -31 5 -41 40 -6 24 -21 47 -36 57 -14 9 -23 22 -20 29 7 19
-21 44 -50 44 -35 0 -31 -34 6 -62 24 -17 30 -29 30 -60 0 -44 30 -107 72
-148 26 -27 29 -35 26 -87 -3 -56 -4 -57 -33 -58 -24 0 -31 -5 -33 -23 -4 -28
14 -52 39 -52 23 0 24 -13 4 -30 -21 -18 -19 -46 7 -70 l22 -20 -25 0 c-17 0
-29 10 -41 36 -10 19 -18 44 -18 55 0 27 -53 79 -81 79 -20 0 -21 -3 -15 -42
15 -89 17 -86 -36 -71 -15 5 -18 -2 -18 -41 0 -35 -4 -48 -17 -53 -29 -10 -53
-35 -53 -55 0 -16 -5 -18 -37 -12 -46 8 -38 2 -66 55 -20 38 -28 44 -58 47
-29 2 -37 -1 -45 -19 -8 -18 -19 -23 -55 -23 -44 -1 -44 -1 -44 -36 0 -32 3
-35 33 -40 33 -5 33 -5 12 -22 -28 -24 -27 -72 3 -86 16 -8 18 -11 6 -11 -9
-1 -19 -8 -23 -16 -3 -8 -14 -15 -25 -15 -10 0 -21 7 -25 15 -3 8 -14 15 -25
15 -10 0 -21 -7 -25 -15 -3 -9 -18 -15 -34 -15 -37 0 -78 -32 -86 -66 -9 -34
10 -81 35 -89 17 -6 17 -7 -2 -26 -20 -20 -25 -64 -9 -89 13 -21 57 5 87 52
26 43 38 47 46 18 4 -14 14 -20 35 -20 17 0 34 5 37 10 10 17 25 11 25 -10 0
-10 -7 -23 -16 -28 -11 -6 -16 -22 -16 -51 1 -35 -2 -41 -20 -41 -12 0 -22 -8
-25 -21 -3 -11 -16 -25 -29 -30 -26 -9 -29 -16 -14 -39 9 -13 12 -13 24 2 11
15 18 16 45 7 17 -6 43 -8 56 -5 18 5 25 2 25 -7 0 -8 9 -22 19 -31 10 -9 21
-29 24 -44 15 -81 56 -136 76 -104 9 14 81 27 81 14 0 -5 -12 -13 -27 -17 -15
-3 -31 -12 -35 -18 -13 -20 -9 -74 7 -87 18 -15 58 14 96 70 14 21 33 45 41
54 14 14 17 13 31 -7 14 -22 15 -22 36 -3 12 11 24 17 27 14 8 -8 8 -58 0 -95
-6 -25 -3 -35 15 -52 13 -12 31 -21 41 -21 10 0 18 -4 18 -8 0 -16 -36 -42
-58 -42 -19 0 -21 4 -16 25 5 22 3 25 -18 25 -14 0 -33 9 -42 19 -17 18 -19
18 -47 3 -30 -18 -40 -57 -18 -79 19 -19 0 -33 -45 -33 -33 0 -48 -6 -68 -27
-15 -16 -28 -39 -30 -53 -2 -20 -8 -24 -30 -22 -30 3 -42 -10 -33 -37 12 -39
59 -36 69 4 5 21 11 24 36 19 22 -5 31 -2 36 9 3 10 24 19 50 23 24 3 49 12
55 20 6 8 18 14 25 14 11 0 12 -4 3 -19 -15 -23 -5 -51 17 -51 9 0 30 6 47 14
18 8 41 16 52 18 14 2 21 12 23 32 3 21 11 31 33 39 18 7 29 19 29 31 0 11 20
38 45 62 36 33 45 38 45 23 0 -11 -9 -28 -20 -39 -24 -24 -27 -82 -5 -103 11
-12 12 -22 4 -51 -8 -27 -7 -41 2 -52 15 -18 53 -18 69 1 14 17 50 4 50 -19 0
-7 11 -18 25 -24 14 -6 25 -16 25 -22 0 -6 10 -10 23 -8 17 2 21 9 19 27 -1
14 -10 33 -19 43 -9 10 -18 40 -21 67 -4 40 0 55 17 77 11 15 21 37 21 49 0
21 2 22 24 12 45 -21 43 -84 -3 -89 -38 -4 -42 -50 -7 -74 14 -9 26 -22 26
-29 0 -19 30 -40 52 -37 13 2 22 -6 29 -28 21 -59 79 -61 79 -3 0 22 3 24 24
19 16 -4 30 0 40 9 8 8 23 15 34 15 11 0 23 7 26 16 7 18 -21 61 -46 69 -9 3
-20 15 -23 26 -4 11 -21 29 -38 39 l-31 19 30 11 c23 10 34 9 57 -4 20 -11 41
-14 66 -10 41 7 81 -8 81 -30 0 -22 23 -34 58 -29 27 5 32 9 32 34 0 24 5 30
35 38 19 5 48 19 65 31 25 18 28 25 20 40 -8 15 -6 21 10 30 26 14 25 40 -1
69 -30 32 -73 26 -77 -13 -2 -16 1 -33 7 -39 17 -17 13 -27 -12 -27 -27 0 -51
-23 -62 -58 l-7 -23 -24 26 c-13 14 -24 34 -24 44 0 9 -5 22 -12 29 -8 8 -6
16 11 29 22 18 22 19 4 51 -20 35 -39 40 -69 17 -10 -8 -29 -15 -41 -15 -13 0
-31 -8 -41 -18 -39 -39 -57 -35 -52 11 1 10 -4 24 -10 32 -7 9 -8 15 0 20 19
12 11 63 -12 79 -21 15 -21 16 -4 35 10 11 16 30 14 43 -3 20 -9 23 -58 26
-79 3 -87 -4 -64 -64 19 -52 49 -101 74 -122 12 -10 -3 -12 -85 -11 -99 2
-100 2 -113 -24 -20 -42 -40 -34 -48 19 -5 38 -4 48 10 56 19 11 22 68 4 86
-8 8 -8 15 2 27 19 23 25 18 25 -25 1 -50 14 -64 53 -55 37 8 51 51 24 75 -9
8 -22 27 -29 41 -16 37 -51 44 -65 14 -15 -34 -28 -21 -28 29 0 29 6 48 18 59
26 24 44 21 41 -5 -4 -31 7 -47 30 -41 28 7 43 43 39 99 l-3 49 -54 -2 c-30
-2 -61 -9 -70 -17 -20 -17 -101 -18 -101 -1 0 6 11 22 25 35 26 24 33 54 15
65 -5 3 -10 17 -10 31 0 26 40 50 67 39 19 -7 60 16 102 55 26 25 34 41 34 69
1 61 -11 91 -36 91 -35 0 -47 -19 -47 -76 0 -29 -3 -55 -7 -57 -5 -2 -33 -1
-63 3 -51 6 -53 7 -30 17 14 6 39 30 55 53 28 41 29 43 10 56 -10 8 -28 14
-38 14 -18 0 -19 5 -14 50 3 28 13 60 22 72 8 13 15 37 15 55 0 18 5 33 10 33
6 0 10 -9 10 -20 0 -36 31 -37 60 -2 15 18 34 32 43 32 27 0 67 -51 67 -87 0
-17 5 -35 10 -38 18 -11 10 -23 -21 -30 -38 -9 -46 -1 -30 29 7 13 11 32 9 42
-4 24 -54 31 -76 10 -10 -8 -30 -26 -45 -41 l-28 -26 31 -29 c18 -17 42 -30
54 -30 29 0 56 -33 56 -68 0 -15 4 -32 9 -38 9 -10 -6 -49 -39 -99 -11 -16
-24 -40 -29 -52 -12 -26 -41 -43 -75 -43 -43 0 -34 -36 16 -60 48 -23 79 -25
96 -8 9 9 15 10 20 2 4 -6 14 -13 22 -16 8 -2 15 -15 15 -28 0 -31 42 -48 83
-34 32 11 43 62 18 84 -9 7 -16 24 -16 39 0 33 -9 47 -37 55 -26 8 -29 21 -9
33 12 7 20 51 17 89 -1 7 -13 15 -28 19 l-28 8 24 6 c15 4 33 23 46 48 l22 41
9 -37 c10 -39 21 -42 95 -28 35 7 36 6 49 -33 9 -27 19 -40 31 -40 26 0 35
-21 16 -35 -26 -19 -20 -41 13 -55 17 -7 35 -21 40 -30 12 -23 45 -31 65 -16
13 9 14 17 6 39 -9 23 -15 26 -36 21 -19 -5 -25 -2 -25 10 0 9 6 16 14 16 42
0 27 55 -20 75 -36 15 -39 21 -25 44 7 11 13 11 32 -3 15 -10 44 -16 76 -16
51 0 54 1 59 30 4 16 17 36 30 45 20 13 22 18 13 45 -6 16 -17 30 -25 30 -8 0
-17 7 -20 15 -4 8 -17 15 -30 15 -33 0 -44 -43 -18 -71 15 -16 16 -22 5 -29
-17 -10 -68 4 -91 25 -9 8 -22 15 -28 15 -6 0 -16 9 -22 20 -8 15 -6 24 10 40
11 11 31 20 43 20 42 0 79 70 45 83 -9 3 -6 10 10 22 44 32 14 71 -42 53 -44
-13 -90 -39 -99 -55 -12 -20 -31 -1 -47 47 -12 38 -12 41 11 62 59 55 62 150
7 156 -29 3 -33 -5 -41 -73 l-3 -30 -8 30 c-25 89 -77 121 -111 69 -13 -20
-19 -23 -25 -14 -15 25 22 85 69 113 18 10 31 28 34 47 7 31 32 41 54 19 8 -8
19 -5 42 12 34 25 38 38 19 58 -11 10 -8 17 13 34 15 12 32 32 38 45 10 18 15
20 31 12 30 -16 100 -13 100 5 0 8 5 15 11 15 6 0 8 -9 4 -21 -6 -19 -4 -20
42 -13 55 8 79 22 63 38 -18 18 -11 33 20 40 27 5 30 9 30 43 0 27 6 42 20 51
11 7 20 20 20 30 0 10 7 28 16 40 9 13 16 46 17 77 l1 54 45 -2 c44 -2 46 -1
68 43 31 61 29 77 -10 94 -31 12 -67 53 -67 75 0 6 13 8 30 4 24 -4 36 0 54
16 l23 22 14 -23 c8 -13 20 -35 27 -50 6 -16 19 -28 27 -28 25 0 55 19 55 35
0 24 17 17 24 -10 9 -34 33 -32 41 4 3 16 13 32 21 35 8 3 14 18 14 33 0 16 9
46 21 67 26 49 22 80 -11 84 -41 5 -63 -19 -63 -67 0 -23 -4 -44 -8 -47 -5 -3
-22 5 -38 17 -17 13 -46 23 -68 23 -33 2 -38 5 -41 27 -2 14 1 36 7 49 l9 25
11 -27 c16 -43 65 -39 108 9 30 32 33 40 24 60 -8 18 -19 23 -49 23 -21 0 -43
-5 -50 -12 -9 -9 -12 -7 -12 10 0 20 5 22 59 22 39 0 63 5 71 14 6 8 21 16 33
18 14 2 23 11 25 26 3 19 -1 22 -27 22 -16 0 -33 -4 -36 -10 -10 -16 -80 -11
-125 9 l-41 18 24 29 24 28 12 -22 c12 -23 45 -30 56 -12 12 20 -6 50 -30 50
-37 0 -55 26 -55 79 0 35 -5 53 -20 66 -11 10 -20 23 -20 30 0 17 -33 45 -53
45 -11 0 -17 8 -17 22 0 12 -8 30 -17 41 -17 18 -17 19 1 32 31 23 13 45 -38
45 -25 0 -48 5 -51 10 -10 17 -22 11 -49 -25z"/>
<path d="M5659 7655 c-28 -15 -53 -60 -43 -77 8 -13 89 -4 109 12 22 19 18 46
-10 64 -29 19 -24 19 -56 1z"/>
<path d="M3111 7637 c-6 -6 -11 -27 -11 -46 0 -29 7 -41 35 -64 20 -16 43 -27
53 -25 21 4 28 50 10 69 -7 8 -18 26 -25 40 -13 29 -45 43 -62 26z"/>
<path d="M8927 7633 c-4 -3 -7 -17 -7 -30 0 -28 23 -27 28 1 4 20 -11 40 -21
29z"/>
<path d="M9885 7632 c-21 -16 -42 -77 -34 -99 7 -20 14 -22 61 -20 50 2 53 4
50 27 -1 13 -9 31 -16 39 -8 9 -16 25 -18 36 -3 21 -26 30 -43 17z"/>
<path d="M7882 7607 c-10 -11 -9 -17 2 -26 21 -18 51 -9 51 14 0 24 -36 32
-53 12z"/>
<path d="M2616 7564 c-19 -50 10 -99 52 -83 26 10 27 15 7 63 -16 38 -48 49
-59 20z"/>
<path d="M10034 7565 c-8 -19 13 -45 36 -45 21 0 35 41 17 52 -20 13 -47 9
-53 -7z"/>
<path d="M5707 7533 c-11 -10 -8 -61 4 -69 6 -3 17 0 25 8 11 11 12 21 5 41
-10 27 -21 33 -34 20z"/>
<path d="M9993 7495 c-3 -9 -3 -28 0 -43 5 -23 1 -30 -24 -44 -31 -18 -36 -39
-19 -82 20 -53 60 -20 60 48 0 37 8 44 27 25 16 -16 33 -2 33 27 0 29 -38 84
-57 84 -8 0 -16 -7 -20 -15z"/>
<path d="M958 7445 c-9 -21 -9 -29 5 -42 22 -22 47 -2 47 38 0 38 -35 40 -52
4z"/>
<path d="M9836 7461 c-4 -5 -2 -12 3 -15 5 -4 12 -2 15 3 4 5 2 12 -3 15 -5 4
-12 2 -15 -3z"/>
<path d="M5618 7421 c-46 -46 -30 -96 29 -89 24 3 28 8 31 37 4 44 -5 81 -21
81 -6 0 -24 -13 -39 -29z"/>
<path d="M5000 7370 c-27 -29 -29 -30 -35 -10 -5 17 -14 21 -43 18 -29 -2 -37
-7 -37 -23 0 -16 8 -21 38 -23 32 -3 39 -8 52 -38 13 -31 18 -35 47 -32 31 3
33 5 41 56 6 38 5 57 -3 67 -18 21 -29 19 -60 -15z"/>
<path d="M10040 7355 c-14 -37 4 -59 39 -50 35 9 35 8 1 45 l-30 32 -10 -27z"/>
<path d="M9770 7351 c-21 -17 -23 -23 -15 -47 13 -36 24 -38 59 -11 24 19 28
28 22 50 -8 32 -31 35 -66 8z"/>
<path d="M7551 7351 c-7 -5 -24 -28 -36 -52 -16 -34 -27 -44 -46 -44 -21 0
-25 6 -29 40 -4 35 -9 40 -33 43 -21 3 -29 -2 -36 -20 -5 -13 -5 -30 0 -40 12
-23 12 -25 -13 -31 -13 -4 -26 0 -32 8 -6 8 -37 18 -68 21 -54 6 -58 5 -58
-14 0 -41 11 -52 51 -52 29 0 46 -7 68 -29 33 -32 31 -41 -9 -41 -49 0 -55
-27 -26 -116 4 -14 0 -28 -14 -44 -20 -24 -25 -46 -14 -74 9 -23 66 -20 97 4
l26 21 7 -26 c4 -16 0 -34 -10 -50 -9 -13 -16 -33 -16 -44 0 -11 -6 -21 -12
-24 -10 -4 -10 -7 0 -18 18 -19 15 -53 -8 -82 -25 -31 -26 -82 -3 -96 10 -5
14 -13 9 -18 -4 -4 -20 7 -35 25 -40 47 -91 39 -91 -15 0 -18 7 -25 28 -29 18
-4 32 -16 41 -35 10 -24 19 -29 47 -29 31 0 34 3 34 30 0 23 4 30 20 30 11 0
25 9 32 20 15 24 28 26 28 4 0 -32 33 -84 56 -90 l24 -6 -22 -24 c-13 -13 -31
-24 -41 -24 -26 0 -32 -28 -12 -50 25 -27 34 -25 47 11 8 24 15 30 36 27 23
-3 26 -8 28 -50 3 -74 24 -91 80 -63 22 10 39 12 69 5 30 -7 43 -6 54 5 11 10
18 11 32 2 17 -10 25 -6 59 33 21 25 39 50 40 57 0 6 -14 16 -32 22 -17 6 -40
18 -50 27 -10 10 -27 15 -43 12 -14 -3 -25 -1 -25 3 0 5 9 9 19 9 11 0 28 12
39 27 23 31 52 26 52 -10 0 -32 19 -47 47 -36 29 11 39 46 19 68 -9 10 -16 29
-16 44 0 17 -7 28 -21 32 -18 6 -20 12 -14 48 4 25 16 50 28 60 70 60 117 108
117 120 0 8 11 19 25 25 32 15 32 40 -1 52 -21 8 -34 4 -85 -30 -62 -41 -105
-51 -115 -26 -3 8 -15 17 -27 22 -19 6 -16 8 15 11 30 3 38 9 47 33 10 30 26
37 91 42 28 2 36 8 38 27 2 13 -2 34 -9 47 -17 33 12 79 44 69 59 -19 77 -17
122 11 47 30 55 56 20 62 -11 2 -27 10 -35 17 -8 7 -27 15 -42 19 -16 3 -28
13 -28 21 0 20 -36 55 -55 55 -9 0 -27 -11 -40 -24 -25 -25 -40 -21 -29 8 11
30 -5 66 -29 66 -28 -1 -64 -29 -69 -55 -2 -11 -14 -22 -28 -25 -14 -3 -29
-16 -35 -28 -5 -12 -16 -22 -23 -22 -18 0 -103 -80 -113 -107 -13 -34 -30 -28
-22 7 4 21 2 30 -8 31 -29 3 -45 -4 -74 -30 -39 -34 -92 -71 -103 -71 -5 0
-24 -18 -43 -39 -24 -29 -37 -37 -46 -30 -16 14 16 50 83 95 62 41 118 92 127
117 5 12 13 16 25 13 22 -7 72 28 72 49 0 8 9 19 20 25 16 8 19 17 14 33 -10
31 -22 37 -57 24 -27 -9 -33 -8 -45 11 -15 24 -29 27 -51 13z"/>
<path d="M4623 7343 c-15 -5 -17 -41 -4 -61 5 -8 17 -12 27 -10 23 4 31 43 14
64 -13 15 -17 16 -37 7z"/>
<path d="M7731 7336 c-9 -11 -10 -20 -1 -35 13 -26 21 -26 51 -2 20 16 21 21
10 35 -17 20 -45 21 -60 2z"/>
<path d="M5695 7329 c-8 -12 14 -31 30 -26 6 2 10 10 10 18 0 17 -31 24 -40 8z"/>
<path d="M912 7280 c-13 -17 -22 -44 -22 -65 0 -25 -4 -35 -15 -35 -13 0 -14
4 -5 21 15 27 6 49 -19 49 -14 0 -22 -9 -27 -27 -3 -16 -12 -46 -20 -68 -8
-23 -14 -62 -14 -87 0 -36 -5 -50 -18 -57 -11 -6 -26 -35 -36 -68 -10 -32 -22
-67 -28 -79 -5 -11 -8 -29 -6 -40 2 -14 -4 -20 -24 -22 -33 -4 -53 -48 -45
-97 5 -27 2 -37 -13 -45 -19 -10 -37 -90 -31 -143 1 -17 -5 -37 -14 -48 -24
-26 -12 -51 22 -47 22 2 28 8 29 28 2 67 30 198 43 201 25 6 61 10 89 10 21 1
37 8 45 20 10 17 13 17 29 2 16 -14 18 -14 24 1 4 10 4 53 1 97 l-5 80 26 -3
c21 -2 26 -8 25 -25 -2 -14 5 -27 17 -33 15 -8 18 -17 13 -41 -5 -29 -4 -30
23 -27 38 4 41 27 10 73 -18 26 -24 45 -20 61 10 39 -3 71 -35 82 -16 6 -34 6
-42 1 -22 -14 -29 -11 -29 14 0 19 9 27 41 37 22 8 43 18 46 24 4 6 7 36 7 67
1 40 6 63 19 77 22 25 40 124 23 134 -22 15 -43 8 -64 -22z"/>
<path d="M4863 7296 c-4 -8 -24 -16 -43 -18 -33 -3 -35 -5 -33 -35 2 -26 -2
-33 -27 -41 -18 -7 -32 -7 -35 -1 -4 5 -19 9 -35 9 -31 0 -60 -30 -60 -63 0
-10 -7 -28 -15 -41 -22 -33 -5 -76 30 -76 39 0 67 34 60 73 -5 25 -2 37 14 51
19 17 21 17 27 2 4 -10 17 -16 35 -16 26 0 28 2 23 30 -6 27 -4 30 20 30 19 0
30 7 38 28 7 15 18 34 25 43 11 14 11 18 -1 28 -11 10 -16 9 -23 -3z"/>
<path d="M1681 7267 c-9 -12 -7 -20 12 -43 32 -37 60 -28 55 18 -2 27 -8 34
-29 36 -14 2 -31 -4 -38 -11z"/>
<path d="M9924 7223 c-10 -49 -13 -53 -33 -53 -26 0 -32 -37 -12 -73 23 -41
55 -33 59 16 2 20 7 37 12 37 19 0 50 45 50 72 0 25 -3 28 -35 28 -30 0 -35
-4 -41 -27z"/>
<path d="M5157 7198 c-24 -13 -22 -55 3 -63 28 -9 40 2 40 35 0 31 -17 43 -43
28z"/>
<path d="M8963 7203 c-20 -7 -15 -31 8 -43 29 -16 49 -5 49 25 0 20 -5 25 -22
24 -13 0 -29 -3 -35 -6z"/>
<path d="M4893 7192 c-16 -11 -21 -35 -11 -54 10 -21 28 -23 52 -5 15 11 16
18 8 34 -13 24 -34 34 -49 25z"/>
<path d="M5336 7163 c-11 -26 35 -46 50 -21 4 6 -1 17 -11 25 -24 17 -32 17
-39 -4z"/>
<path d="M8206 7108 c-5 -23 -1 -37 13 -52 11 -12 22 -38 26 -58 6 -31 11 -38
31 -38 32 0 45 47 19 66 -12 9 -16 21 -12 41 8 44 -8 73 -42 73 -24 0 -29 -5
-35 -32z"/>
<path d="M9246 7101 c-16 -17 -15 -20 8 -48 13 -16 26 -42 28 -58 2 -22 8 -30
23 -30 16 0 21 8 23 36 2 23 -2 40 -12 49 -9 7 -16 20 -16 29 0 17 -18 41 -30
41 -4 0 -15 -8 -24 -19z"/>
<path d="M10227 7096 c-6 -16 11 -36 30 -36 7 0 13 11 13 25 0 18 -5 25 -19
25 -10 0 -21 -6 -24 -14z"/>
<path d="M4928 7060 c-14 -11 -32 -20 -40 -20 -35 0 -54 -65 -23 -76 19 -8 62
20 70 45 3 11 16 21 28 23 14 2 22 10 22 23 0 27 -26 30 -57 5z"/>
<path d="M10075 7060 c-10 -16 24 -62 43 -58 11 2 17 13 17 33 0 25 -4 31 -27
33 -14 2 -29 -2 -33 -8z"/>
<path d="M9840 7050 c0 -5 7 -10 15 -10 8 0 15 5 15 10 0 6 -7 10 -15 10 -8 0
-15 -4 -15 -10z"/>
<path d="M5093 6996 c-47 -45 -48 -47 -28 -62 23 -18 83 -13 97 8 13 21 9 75
-7 88 -12 10 -23 4 -62 -34z"/>
<path d="M9720 7022 c0 -5 7 -17 15 -28 8 -10 15 -38 15 -61 0 -59 8 -73 41
-73 37 0 49 24 49 95 0 61 -13 75 -49 55 -17 -9 -21 -8 -21 5 0 9 -9 15 -25
15 -14 0 -25 -4 -25 -8z"/>
<path d="M10270 7015 c0 -10 -10 -15 -33 -15 -27 0 -36 -6 -46 -26 -6 -14 -9
-30 -6 -35 11 -16 44 -9 55 11 6 12 22 25 36 30 27 10 34 50 9 50 -8 0 -15 -7
-15 -15z"/>
<path d="M4720 7010 c-20 -12 -6 -44 23 -54 35 -13 68 13 48 37 -14 18 -55 27
-71 17z"/>
<path d="M8065 7000 c-10 -16 3 -43 30 -63 35 -25 68 -8 59 31 -4 15 -9 30
-11 35 -6 11 -71 9 -78 -3z"/>
<path d="M702 6973 c5 -25 28 -28 28 -4 0 12 -6 21 -16 21 -9 0 -14 -7 -12
-17z"/>
<path d="M9587 6974 c-12 -12 -8 -52 6 -57 22 -8 39 8 35 34 -3 23 -27 37 -41
23z"/>
<path d="M8195 6943 c-31 -6 -66 -85 -55 -124 11 -39 -3 -64 -44 -76 -26 -7
-32 -15 -36 -48 -6 -39 -35 -95 -50 -95 -4 0 -16 -12 -25 -27 -15 -22 -16 -30
-5 -47 11 -17 9 -23 -19 -48 -40 -36 -42 -78 -5 -107 25 -20 28 -20 55 -4 16
10 29 24 29 31 0 8 8 16 18 19 28 7 50 53 45 90 -4 24 1 40 18 62 51 62 59 76
59 93 0 10 7 21 15 24 8 4 15 17 15 29 0 13 7 30 15 39 18 18 19 30 3 56 -19
29 11 74 51 78 16 2 35 9 41 17 9 11 5 17 -19 29 -29 15 -62 18 -106 9z"/>
<path d="M10026 6935 c-17 -18 -12 -41 12 -50 23 -9 44 22 31 46 -12 23 -23
24 -43 4z"/>
<path d="M10104 6936 c-9 -24 3 -47 21 -40 19 8 19 28 0 44 -12 10 -16 9 -21
-4z"/>
<path d="M8465 6920 c-10 -33 4 -60 31 -60 13 0 24 5 24 10 0 6 13 10 29 10
35 0 50 28 25 47 -10 7 -37 13 -60 13 -34 0 -44 -4 -49 -20z"/>
<path d="M9050 6901 c0 -41 26 -48 45 -12 16 32 12 41 -22 41 -19 0 -23 -5
-23 -29z"/>
<path d="M4827 6896 c-8 -19 15 -37 33 -26 11 7 11 11 1 24 -17 20 -27 20 -34
2z"/>
<path d="M7065 6890 c-8 -13 20 -24 41 -16 20 8 9 26 -16 26 -10 0 -22 -5 -25
-10z"/>
<path d="M8390 6877 c-33 -17 -40 -71 -11 -86 16 -9 24 -7 40 11 28 29 35 56
21 73 -15 18 -18 18 -50 2z"/>
<path d="M8636 6879 c-17 -4 -34 -15 -38 -24 -5 -8 -19 -15 -32 -15 -44 0 -75
-44 -52 -76 29 -39 139 12 175 83 22 44 10 51 -53 32z"/>
<path d="M1754 6845 c-8 -20 13 -45 37 -45 14 0 19 7 19 30 0 25 -4 30 -25 30
-14 0 -28 -7 -31 -15z"/>
<path d="M3011 6814 c-12 -19 -21 -42 -21 -50 0 -8 -4 -14 -10 -14 -5 0 -10 5
-10 10 0 12 -40 13 -59 1 -9 -6 -11 -18 -7 -34 3 -14 1 -38 -5 -54 -9 -25 -7
-30 18 -50 15 -13 35 -23 43 -23 30 0 78 39 95 78 10 22 29 45 42 51 29 13 25
37 -15 89 -31 41 -45 40 -71 -4z"/>
<path d="M9926 6797 c-15 -11 -16 -17 -5 -40 9 -20 19 -27 33 -25 25 4 34 42
16 64 -15 17 -21 18 -44 1z"/>
<path d="M8246 6754 c-9 -8 -16 -21 -16 -27 0 -7 -3 -22 -6 -34 -5 -18 -2 -23
13 -23 28 0 95 64 87 84 -8 21 -58 21 -78 0z"/>
<path d="M9772 6758 c-6 -6 -12 -25 -12 -40 0 -23 4 -28 24 -28 30 0 49 22 44
52 -3 26 -36 36 -56 16z"/>
<path d="M10103 6754 c-8 -22 17 -44 59 -50 30 -5 36 -3 41 16 10 38 -2 50
-49 50 -31 0 -46 -5 -51 -16z"/>
<path d="M6948 6728 c-8 -22 7 -63 23 -66 18 -3 41 41 33 63 -7 18 -50 20 -56
3z"/>
<path d="M2621 6696 c-15 -18 2 -56 24 -56 22 0 39 38 24 56 -6 8 -17 14 -24
14 -7 0 -18 -6 -24 -14z"/>
<path d="M6217 6693 c-15 -14 -6 -54 19 -78 20 -21 29 -23 40 -14 15 12 18 47
6 65 -6 10 -45 34 -55 34 -2 0 -7 -3 -10 -7z"/>
<path d="M10307 6643 c-12 -12 -7 -50 8 -63 36 -30 62 21 27 53 -20 19 -26 20
-35 10z"/>
<path d="M802 6598 c-15 -15 -15 -41 0 -56 9 -9 16 -8 30 5 23 21 23 40 0 52
-13 7 -23 6 -30 -1z"/>
<path d="M9970 6580 c-6 -11 -17 -20 -25 -20 -22 0 -50 -47 -37 -63 5 -6 12
-23 14 -37 4 -34 33 -37 54 -5 14 21 15 33 7 60 -10 30 -8 34 14 44 21 9 23
14 13 26 -17 20 -27 19 -40 -5z"/>
<path d="M3707 6563 c-12 -11 -8 -40 6 -52 18 -14 52 21 44 44 -6 15 -38 21
-50 8z"/>
<path d="M820 6495 c-19 -20 -22 -30 -14 -43 29 -46 88 -6 65 44 -13 30 -22
30 -51 -1z"/>
<path d="M10342 6508 c-17 -17 -15 -36 9 -74 l20 -33 -20 -20 c-12 -12 -21
-34 -21 -50 0 -23 -5 -30 -29 -34 -25 -5 -29 -11 -33 -49 -6 -60 2 -98 19 -98
8 0 17 -9 20 -20 7 -25 15 -25 31 0 16 27 32 17 32 -20 0 -22 6 -30 30 -39 25
-8 30 -15 30 -44 0 -50 34 -89 74 -85 28 3 31 7 34 40 3 30 -1 38 -18 43 -19
6 -20 9 -7 23 24 28 29 58 12 72 -8 7 -15 22 -15 35 0 12 -7 37 -16 54 -10 20
-17 61 -18 101 -1 63 -3 69 -34 95 -19 16 -32 36 -32 50 0 30 -51 70 -68 53z"/>
<path d="M10274 6488 c-5 -7 -7 -24 -5 -36 1 -14 -6 -32 -18 -43 -28 -26 -26
-43 5 -68 42 -33 55 -14 50 72 -5 71 -17 100 -32 75z"/>
<path d="M9840 6465 c0 -8 5 -15 10 -15 6 0 10 7 10 15 0 8 -4 15 -10 15 -5 0
-10 -7 -10 -15z"/>
<path d="M8144 6426 c-9 -23 7 -38 26 -26 13 8 13 11 -2 26 -16 17 -18 17 -24
0z"/>
<path d="M3232 6408 c2 -15 10 -23 23 -23 30 0 27 39 -3 43 -20 3 -23 0 -20
-20z"/>
<path d="M4204 6415 c-17 -45 40 -101 73 -73 13 11 18 9 31 -10 9 -14 25 -22
43 -22 33 0 43 13 35 45 -5 18 -17 27 -49 35 -23 5 -55 17 -70 25 -36 19 -56
19 -63 0z"/>
<path d="M4994 6375 c-9 -22 0 -50 16 -50 21 0 26 51 5 59 -9 3 -18 0 -21 -9z"/>
<path d="M8367 6383 c-14 -13 -6 -23 19 -23 23 0 26 -3 21 -27 -3 -15 -1 -38
4 -51 l9 -23 31 21 c23 17 29 29 27 49 -2 21 -9 27 -33 29 -16 2 -34 10 -38
18 -8 15 -29 19 -40 7z"/>
<path d="M9227 6383 c-17 -17 -6 -54 19 -63 32 -13 44 -6 44 25 0 31 -44 57
-63 38z"/>
<path d="M9764 6376 c-10 -26 4 -48 28 -44 17 2 23 10 23 28 0 18 -6 26 -23
28 -13 2 -25 -3 -28 -12z"/>
<path d="M7910 6330 c0 -11 5 -20 10 -20 6 0 10 9 10 20 0 11 -4 20 -10 20 -5
0 -10 -9 -10 -20z"/>
<path d="M4673 6333 c-12 -2 -27 -11 -33 -19 -7 -8 -18 -14 -25 -14 -11 0 -23
-9 -81 -58 -24 -20 -54 -73 -54 -95 0 -8 -7 -20 -16 -28 -8 -7 -13 -21 -11
-31 3 -11 -2 -22 -14 -28 -10 -6 -28 -29 -39 -50 -11 -22 -26 -40 -34 -40 -14
0 -46 -72 -46 -104 0 -13 -7 -17 -27 -16 -48 3 -53 1 -53 -30 0 -36 27 -52 45
-27 11 15 83 47 105 47 10 0 -17 -57 -31 -65 -16 -11 -10 -24 21 -40 17 -9 30
-22 30 -29 0 -7 6 -19 14 -25 11 -10 16 -8 24 5 9 16 14 14 44 -18 30 -33 37
-36 68 -29 32 6 35 10 38 46 2 22 10 47 18 56 8 9 17 32 21 52 5 34 6 35 41
25 38 -11 60 5 40 29 -8 11 -1 22 31 49 45 39 54 76 22 94 -29 15 -72 12 -93
-6 -14 -14 -20 -14 -33 -4 -13 11 -14 15 -2 29 8 9 18 33 21 54 6 30 11 37 24
33 9 -3 23 -2 31 3 11 7 9 10 -8 16 -25 8 -25 13 -7 62 8 21 17 52 21 68 4 17
13 37 21 46 32 36 -2 56 -73 42z"/>
<path d="M2856 6315 c-8 -21 11 -58 27 -52 19 6 15 61 -4 65 -9 2 -19 -4 -23
-13z"/>
<path d="M3867 6263 c-14 -13 -6 -43 13 -53 42 -22 90 21 54 47 -19 14 -56 17
-67 6z"/>
<path d="M2208 6249 c-28 -16 -23 -56 7 -61 30 -6 48 12 43 44 -3 26 -24 33
-50 17z"/>
<path d="M3237 6254 c-14 -14 -8 -94 8 -100 27 -11 46 16 43 60 -2 32 -7 42
-23 44 -12 2 -24 0 -28 -4z"/>
<path d="M568 6244 c-14 -13 6 -44 27 -44 14 0 25 7 28 19 6 24 0 31 -28 31
-12 0 -24 -3 -27 -6z"/>
<path d="M4771 6224 c0 -11 3 -14 6 -6 3 7 2 16 -1 19 -3 4 -6 -2 -5 -13z"/>
<path d="M4011 6220 c-17 -10 -7 -40 13 -40 7 0 16 6 19 14 8 19 -15 37 -32
26z"/>
<path d="M7520 6218 c-24 -9 -24 -10 -6 -24 25 -17 31 -18 45 0 17 21 -7 36
-39 24z"/>
<path d="M4327 6214 c-11 -11 3 -24 24 -24 12 0 19 5 17 13 -5 14 -31 21 -41
11z"/>
<path d="M2520 6165 c0 -29 27 -45 41 -24 14 22 6 44 -19 47 -18 3 -22 -1 -22
-23z"/>
<path d="M8307 6183 c-12 -12 -7 -21 23 -43 30 -22 68 -18 38 4 -8 6 -17 19
-21 29 -6 17 -28 23 -40 10z"/>
<path d="M2697 6153 c-13 -12 -7 -30 20 -59 32 -34 42 -49 78 -124 15 -30 31
-62 36 -70 5 -8 13 -25 19 -37 11 -26 42 -30 59 -9 12 14 -1 67 -23 96 -7 8
-17 26 -24 40 -7 14 -16 32 -21 40 -5 8 -17 33 -27 55 -28 60 -44 75 -79 75
-17 0 -35 -3 -38 -7z"/>
<path d="M10245 6130 c-7 -12 3 -50 14 -50 4 0 15 6 24 13 14 11 14 14 -8 30
-15 10 -26 13 -30 7z"/>
<path d="M2194 6116 c-7 -19 26 -65 46 -66 8 0 21 4 29 9 11 7 10 14 -8 40
-23 33 -58 41 -67 17z"/>
<path d="M10156 6114 c-22 -21 -20 -41 5 -55 17 -9 25 -8 37 5 13 12 13 20 4
41 -13 29 -24 31 -46 9z"/>
<path d="M9503 6093 c-16 -6 -17 -59 -2 -69 14 -8 48 33 49 59 0 17 -21 21
-47 10z"/>
<path d="M1677 6054 c-16 -16 -6 -35 16 -32 12 2 22 10 22 18 0 16 -26 25 -38
14z"/>
<path d="M2627 6043 c-13 -13 -7 -54 9 -60 22 -8 34 16 21 44 -10 24 -19 28
-30 16z"/>
<path d="M10335 6016 c-17 -12 -18 -17 -7 -40 15 -34 38 -33 46 1 10 37 -12
59 -39 39z"/>
<path d="M2936 6013 c-3 -3 -6 -19 -6 -34 0 -22 6 -30 26 -35 24 -6 43 6 44
28 0 11 -57 48 -64 41z"/>
<path d="M10100 5994 c-12 -30 -6 -44 20 -44 23 0 36 36 20 55 -18 22 -29 18
-40 -11z"/>
<path d="M10202 6008 c-17 -17 -15 -55 4 -62 22 -9 34 1 34 28 0 31 -22 50
-38 34z"/>
<path d="M1517 5983 c-25 -25 23 -84 50 -61 18 14 16 25 -7 48 -21 21 -32 24
-43 13z"/>
<path d="M9697 5983 c-11 -10 -8 -61 3 -68 15 -9 50 14 50 33 0 31 -35 54 -53
35z"/>
<path d="M2666 5952 c-14 -13 -5 -62 13 -72 26 -14 56 -13 69 3 19 23 -61 91
-82 69z"/>
<path d="M3810 5925 c-16 -19 -5 -47 17 -43 11 2 18 12 18 27 0 29 -17 37 -35
16z"/>
<path d="M2417 5913 c-12 -12 -7 -50 7 -63 23 -18 61 -8 64 16 5 36 -48 71
-71 47z"/>
<path d="M10156 5904 c-34 -33 -7 -70 44 -59 l30 7 0 -60 c0 -42 -5 -65 -16
-76 -9 -9 -13 -24 -9 -35 4 -14 0 -21 -14 -26 -11 -3 -23 -14 -26 -24 -3 -11
-19 -24 -35 -31 -17 -7 -30 -16 -30 -20 0 -5 -8 -16 -17 -26 -24 -23 -25 -107
-1 -112 15 -3 30 16 57 76 6 12 14 22 19 22 5 0 30 -21 55 -46 46 -45 48 -46
72 -30 14 9 25 23 25 30 0 16 -59 56 -83 56 -28 0 -29 20 -3 61 28 42 55 51
63 20 11 -42 67 -30 61 13 -2 15 -11 22 -35 24 -17 2 -37 10 -43 17 -10 12 -7
17 14 25 23 9 26 15 26 62 0 29 3 69 6 89 7 44 -16 59 -45 30 -19 -19 -19 -19
-25 5 -5 19 -13 24 -40 24 -19 0 -42 -7 -50 -16z"/>
<path d="M8274 5876 c-9 -24 0 -61 16 -63 30 -6 45 14 34 44 -11 31 -41 43
-50 19z"/>
<path d="M10463 5875 c-8 -24 3 -115 16 -128 8 -8 16 -9 29 -1 21 13 29 108
11 130 -15 19 -48 18 -56 -1z"/>
<path d="M8145 5870 c3 -5 8 -10 11 -10 2 0 4 5 4 10 0 6 -5 10 -11 10 -5 0
-7 -4 -4 -10z"/>
<path d="M1071 5852 c-11 -21 -6 -32 16 -32 15 0 18 36 4 45 -6 3 -15 -3 -20
-13z"/>
<path d="M1780 5863 c0 -5 5 -15 10 -23 8 -12 10 -11 10 8 0 12 -4 22 -10 22
-5 0 -10 -3 -10 -7z"/>
<path d="M10045 5847 c-17 -13 -17 -15 3 -35 12 -12 28 -19 37 -16 20 8 19 50
-1 58 -20 8 -17 8 -39 -7z"/>
<path d="M8674 5816 c-15 -11 -15 -16 -3 -42 11 -22 21 -29 44 -29 27 0 30 3
30 34 0 29 -4 36 -27 42 -17 4 -33 2 -44 -5z"/>
<path d="M8072 5799 c2 -6 8 -10 13 -10 5 0 11 4 13 10 2 6 -4 11 -13 11 -9 0
-15 -5 -13 -11z"/>
<path d="M4165 5769 c-20 -38 -13 -59 20 -59 18 0 28 7 36 26 23 61 -27 90
-56 33z"/>
<path d="M2115 5754 c-17 -17 -14 -37 13 -94 22 -45 29 -49 69 -43 19 3 39 0
48 -7 24 -20 65 -4 76 30 9 25 16 29 52 32 34 2 42 7 42 23 0 17 -8 21 -45 23
-29 2 -48 -1 -55 -11 -12 -16 -87 -28 -106 -16 -11 6 -10 9 4 15 20 7 22 35 5
52 -17 17 -84 15 -103 -4z"/>
<path d="M10069 5744 c-16 -20 1 -37 32 -32 30 4 31 28 2 39 -15 5 -25 3 -34
-7z"/>
<path d="M2524 5739 c-10 -17 13 -36 27 -22 12 12 4 33 -11 33 -5 0 -12 -5
-16 -11z"/>
<path d="M10350 5694 c0 -8 5 -12 10 -9 6 3 10 10 10 16 0 5 -4 9 -10 9 -5 0
-10 -7 -10 -16z"/>
<path d="M1434 5655 c-8 -31 1 -55 19 -55 26 0 38 25 27 54 -12 33 -38 34 -46
1z"/>
<path d="M1001 5641 c-16 -10 -5 -51 14 -51 17 0 26 37 11 49 -6 5 -18 6 -25
2z"/>
<path d="M1234 5584 c-15 -60 45 -104 66 -48 13 33 13 30 -12 54 -29 27 -46
25 -54 -6z"/>
<path d="M2177 5573 c-3 -5 -8 -34 -12 -67 -8 -60 -1 -75 36 -76 15 0 49 63
49 93 0 36 -58 75 -73 50z"/>
<path d="M9803 5572 c-6 -4 -9 -19 -6 -35 4 -22 11 -27 34 -27 25 0 29 4 29
29 0 35 -28 51 -57 33z"/>
<path d="M1154 5560 c-23 -9 -36 -53 -27 -90 9 -34 46 -68 79 -72 24 -2 30 1
32 20 2 13 -4 32 -14 43 -10 11 -17 36 -18 61 -1 46 -13 54 -52 38z"/>
<path d="M2114 5545 c-7 -18 3 -35 21 -35 18 0 26 15 19 34 -8 20 -33 21 -40
1z"/>
<path d="M1047 5536 c-3 -8 5 -24 18 -36 l24 -23 6 26 c4 14 4 31 0 36 -9 16
-42 13 -48 -3z"/>
<path d="M2741 5534 c0 -11 3 -14 6 -6 3 7 2 16 -1 19 -3 4 -6 -2 -5 -13z"/>
<path d="M9990 5540 c-13 -8 -13 -11 2 -27 21 -20 45 -5 35 21 -7 18 -16 20
-37 6z"/>
<path d="M1351 5518 c-10 -27 -1 -41 22 -33 21 9 31 37 15 47 -20 12 -28 10
-37 -14z"/>
<path d="M2291 5518 c-12 -31 15 -76 51 -83 15 -4 32 -4 38 0 15 9 12 42 -5
49 -8 3 -15 12 -15 21 0 8 -12 20 -26 25 -34 13 -33 13 -43 -12z"/>
<path d="M9720 5492 c0 -31 23 -52 48 -46 41 11 21 64 -25 64 -16 0 -23 -6
-23 -18z"/>
<path d="M987 5456 c-21 -19 -27 -34 -27 -66 0 -52 21 -62 54 -23 28 31 33 70
13 97 -12 16 -14 16 -40 -8z"/>
<path d="M1482 5415 c-50 -45 -56 -78 -14 -73 22 2 29 -3 41 -29 10 -23 21
-33 37 -33 27 0 38 41 18 67 -7 10 -14 30 -14 44 0 14 -6 33 -13 44 -13 17
-16 16 -55 -20z"/>
<path d="M467 5434 c-11 -11 13 -44 32 -44 18 0 35 33 23 44 -7 8 -47 7 -55 0z"/>
<path d="M1376 5432 c-7 -12 4 -52 14 -52 12 0 23 38 15 50 -7 12 -22 13 -29
2z"/>
<path d="M2151 5411 c-19 -12 -6 -43 16 -39 10 2 18 12 18 22 0 22 -14 29 -34
17z"/>
<path d="M9690 5390 c-24 -34 -19 -50 15 -50 33 0 53 55 25 70 -15 8 -23 5
-40 -20z"/>
<path d="M592 5393 c-15 -28 -12 -129 3 -150 23 -31 49 -5 59 61 8 52 6 59
-15 82 -27 29 -35 30 -47 7z"/>
<path d="M10134 5389 c-44 -13 -49 -34 -15 -71 l28 -31 26 19 c32 23 44 58 27
79 -14 17 -21 17 -66 4z"/>
<path d="M3944 5369 c-10 -17 13 -36 27 -22 12 12 4 33 -11 33 -5 0 -12 -5
-16 -11z"/>
<path d="M1944 5345 c-9 -23 3 -45 25 -45 23 0 32 18 19 43 -11 21 -37 22 -44
2z"/>
<path d="M1136 5334 c-17 -44 8 -80 38 -54 20 16 84 -16 67 -33 -6 -6 -11 -26
-11 -44 0 -27 4 -33 21 -33 29 0 59 18 59 35 0 19 16 19 24 0 3 -8 16 -15 30
-15 27 0 36 -16 36 -65 0 -43 22 -65 66 -65 52 0 97 55 62 76 -7 4 -28 10 -48
14 -33 5 -35 7 -32 43 3 33 0 38 -24 48 -16 5 -35 16 -44 24 -45 42 -59 52
-94 68 -29 13 -41 15 -52 6 -10 -8 -22 -8 -45 0 -42 14 -46 14 -53 -5z"/>
<path d="M4004 5276 c-11 -29 1 -81 19 -84 25 -5 57 26 57 54 0 36 -64 61 -76
30z"/>
<path d="M1823 5273 c-15 -5 -18 -59 -4 -67 17 -11 41 6 41 29 0 26 -19 45
-37 38z"/>
<path d="M2151 5243 c-14 -27 1 -45 35 -41 23 2 29 8 29 28 0 20 -6 26 -27 28
-18 2 -30 -3 -37 -15z"/>
<path d="M1961 5211 c-23 -15 -5 -41 29 -41 27 0 31 3 28 23 -3 24 -33 33 -57
18z"/>
<path d="M3705 5212 c-29 -6 -38 -17 -30 -41 8 -25 50 -38 70 -21 34 28 6 72
-40 62z"/>
<path d="M1200 5129 c0 -5 -9 -31 -21 -56 -23 -50 -20 -107 6 -117 10 -3 15
-19 15 -43 1 -51 41 -103 67 -87 13 8 17 22 15 46 -3 31 28 112 48 128 12 9
40 73 40 90 0 9 -8 24 -18 33 -22 20 -92 23 -92 5 0 -9 -3 -9 -12 0 -15 15
-48 16 -48 1z"/>
<path d="M2093 5103 c-7 -3 -13 -17 -13 -33 0 -31 16 -42 43 -28 35 18 7 74
-30 61z"/>
<path d="M10340 5080 c-12 -23 -6 -40 16 -40 8 0 14 10 14 24 0 33 -16 42 -30
16z"/>
<path d="M3635 5014 c-14 -11 -32 -14 -60 -9 -92 13 -100 12 -100 -15 0 -19 6
-26 24 -28 14 -2 34 -10 45 -17 28 -18 99 -28 136 -20 27 6 30 10 30 44 0 31
-5 40 -25 49 -31 14 -26 15 -50 -4z"/>
<path d="M4101 4997 c-9 -11 -8 -17 4 -27 19 -16 47 -5 43 17 -4 23 -31 28
-47 10z"/>
<path d="M2277 4983 c-30 -15 -45 -58 -30 -81 16 -27 41 -38 59 -27 19 12 45
81 38 100 -8 20 -38 24 -67 8z"/>
<path d="M1682 4968 c-6 -6 -12 -25 -12 -41 0 -47 89 -117 150 -117 11 0 20
-7 20 -16 0 -24 50 -84 71 -84 21 0 30 12 38 52 3 16 10 29 15 29 12 0 36 -76
36 -113 0 -16 8 -31 18 -37 15 -8 22 -4 35 19 14 24 16 39 8 94 -11 78 -15 86
-46 86 -19 0 -24 6 -27 33 -2 26 -8 33 -30 35 -15 2 -36 -2 -47 -7 -13 -7 -22
-8 -26 -1 -10 16 -63 12 -91 -6 -30 -20 -36 -15 -43 39 -5 36 -10 42 -31 45
-14 2 -31 -3 -38 -10z"/>
<path d="M10312 4953 c2 -12 12 -18 28 -18 16 0 26 6 28 18 3 13 -3 17 -28 17
-25 0 -31 -4 -28 -17z"/>
<path d="M4315 4929 c-13 -20 4 -59 25 -59 27 0 50 47 29 61 -19 12 -46 11
-54 -2z"/>
<path d="M630 4831 c-26 -50 -2 -115 41 -109 20 2 24 9 27 45 2 32 -2 47 -17
62 -26 26 -37 26 -51 2z"/>
<path d="M3642 4838 c-16 -16 -15 -55 1 -65 6 -4 17 -17 23 -28 9 -17 22 -20
75 -20 58 0 64 2 67 21 2 16 -7 28 -31 43 -19 11 -41 21 -50 21 -9 0 -20 6
-24 14 -12 20 -47 28 -61 14z"/>
<path d="M2296 4823 c-12 -12 -6 -53 8 -53 13 0 26 20 26 40 0 10 -26 20 -34
13z"/>
<path d="M1717 4763 c-13 -12 -7 -54 8 -59 19 -8 45 13 45 36 0 23 -37 39 -53
23z"/>
<path d="M2127 4693 c-10 -10 -8 -51 2 -57 5 -4 21 -2 35 4 19 7 26 17 26 35
0 21 -5 25 -28 25 -16 0 -32 -3 -35 -7z"/>
<path d="M2560 4681 c0 -17 6 -21 31 -21 24 0 30 4 27 18 -2 10 -14 18 -31 20
-22 3 -27 -1 -27 -17z"/>
<path d="M2287 4663 c-12 -11 -8 -40 8 -53 12 -10 16 -8 24 11 13 37 -9 66
-32 42z"/>
<path d="M4300 4651 c-5 -11 -10 -26 -10 -35 0 -17 30 -29 52 -21 20 8 42 50
34 64 -12 19 -64 13 -76 -8z"/>
<path d="M2183 4554 c-8 -22 8 -36 33 -30 33 9 31 -14 -3 -39 -22 -15 -44 -19
-117 -20 -77 0 -91 -3 -94 -17 -2 -9 9 -27 24 -40 15 -13 31 -27 36 -33 53
-61 60 -83 33 -105 -17 -14 -20 -76 -4 -85 7 -5 4 -13 -7 -26 -23 -25 -3 -52
32 -43 22 6 24 3 24 -34 0 -43 20 -72 49 -72 9 0 26 -7 37 -15 25 -19 60 -19
68 0 3 8 13 15 23 15 15 0 18 -8 18 -40 0 -50 23 -75 59 -66 22 5 26 12 26 41
0 18 -4 37 -10 40 -20 12 -11 37 12 33 15 -2 24 -13 30 -35 8 -31 37 -50 67
-44 25 5 39 -26 34 -73 -5 -39 -2 -46 21 -61 35 -23 49 -15 65 39 11 39 11 52
0 79 -7 17 -19 37 -27 42 -7 6 -15 30 -18 53 -2 23 -10 55 -19 71 -9 18 -12
41 -9 58 4 20 1 33 -10 42 -24 20 -19 39 14 56 42 22 41 68 -1 110 -25 24 -33
27 -48 18 -15 -10 -22 -7 -40 15 -11 14 -21 29 -21 33 0 3 -12 11 -26 17 -14
7 -22 17 -19 23 12 18 -26 49 -59 49 -36 0 -48 7 -64 35 -8 15 -22 20 -57 21
-30 1 -48 -3 -52 -12z"/>
<path d="M4061 4498 c-36 -48 -36 -51 -16 -68 21 -18 45 -5 45 24 0 14 5 28
10 31 13 8 13 42 1 49 -5 4 -23 -13 -40 -36z"/>
<path d="M4357 4494 c-13 -14 -6 -59 12 -81 11 -13 30 -23 45 -23 21 0 26 -5
26 -24 0 -28 22 -49 47 -44 31 6 23 58 -12 78 -16 9 -38 34 -50 56 -19 37 -51
55 -68 38z"/>
<path d="M782 4427 c-14 -17 2 -91 29 -129 24 -33 55 -37 64 -8 9 28 -4 99
-22 127 -17 25 -54 30 -71 10z"/>
<path d="M10332 4427 c-15 -18 4 -87 23 -87 20 0 30 46 16 76 -12 27 -23 30
-39 11z"/>
<path d="M3961 4386 c-37 -29 -40 -36 -29 -67 5 -16 19 -30 34 -33 l25 -7 -28
-35 c-26 -35 -26 -37 -8 -50 10 -8 27 -14 37 -14 12 0 18 -7 18 -22 0 -12 6
-29 14 -37 36 -42 87 -124 83 -134 -2 -7 0 -23 4 -36 8 -19 14 -22 36 -16 34
8 43 21 43 62 0 33 25 67 41 58 15 -10 10 -55 -6 -61 -9 -4 -15 -18 -14 -38 0
-42 43 -75 107 -83 54 -6 57 -4 82 62 18 47 43 56 69 23 18 -22 18 -23 -1 -36
-15 -11 -17 -17 -7 -28 17 -21 74 -46 96 -42 12 2 19 -4 21 -19 4 -25 36 -36
81 -27 17 4 31 2 31 -3 0 -5 13 -23 30 -39 16 -16 30 -35 30 -41 0 -7 7 -13
15 -13 10 0 15 -11 15 -35 0 -32 2 -35 30 -35 34 0 47 28 33 70 -4 14 -8 45
-8 69 0 40 3 46 25 51 41 10 38 43 -7 71 -21 13 -41 25 -46 27 -4 2 -30 -10
-57 -27 -58 -36 -68 -22 -20 29 39 41 40 77 3 91 -58 23 -79 38 -102 73 -25
37 -67 50 -75 24 -16 -52 -15 -52 -41 -14 -14 20 -25 40 -25 43 0 3 -11 30
-25 59 -33 70 -67 96 -119 92 -40 -3 -41 -4 -52 -53 -10 -49 -11 -50 -44 -47
-19 1 -41 9 -50 17 -27 25 -69 29 -90 10 -19 -18 -20 -17 -20 8 0 15 4 27 9
27 5 0 12 21 16 46 5 39 3 50 -15 69 -30 32 -103 38 -139 11z"/>
<path d="M4175 4351 c-3 -11 -12 -22 -20 -25 -9 -3 -15 -19 -15 -41 0 -33 2
-35 33 -35 37 0 77 36 77 69 0 43 -63 70 -75 32z"/>
<path d="M10396 4314 c-25 -25 -20 -54 8 -54 30 0 40 14 32 46 -7 28 -18 30
-40 8z"/>
<path d="M10304 4264 c-8 -30 10 -54 27 -37 13 13 4 63 -11 63 -5 0 -13 -12
-16 -26z"/>
<path d="M2797 4263 c-13 -12 -7 -41 9 -47 20 -8 54 10 54 28 0 21 -48 35 -63
19z"/>
<path d="M4489 4254 c-16 -20 1 -37 32 -32 30 4 31 28 2 39 -15 5 -25 3 -34
-7z"/>
<path d="M2803 4184 c-6 -17 12 -34 38 -34 18 0 29 18 22 38 -7 18 -53 15 -60
-4z"/>
<path d="M3307 4154 c-4 -4 -24 -10 -44 -13 -37 -6 -38 -8 -38 -46 0 -40 0
-40 40 -40 38 0 40 2 43 33 4 36 17 42 25 11 9 -33 32 -17 32 22 0 29 -4 34
-25 37 -14 2 -29 0 -33 -4z"/>
<path d="M3400 4130 c-21 -38 43 -111 72 -82 17 17 0 59 -32 82 l-29 21 -11
-21z"/>
<path d="M2746 4127 c-17 -13 -18 -17 -5 -45 24 -54 99 -53 99 2 0 11 -4 27
-8 33 -13 20 -65 26 -86 10z"/>
<path d="M3037 4129 c-9 -6 -17 -21 -17 -34 0 -14 -8 -29 -20 -35 -26 -14 -27
-60 -2 -60 10 0 33 11 52 25 19 14 47 25 62 25 21 0 28 5 28 20 0 16 6 20 33
18 26 -3 32 1 32 17 0 18 -7 20 -66 21 -36 1 -70 4 -75 7 -5 3 -17 1 -27 -4z"/>
<path d="M3834 4094 c-8 -31 9 -51 52 -60 22 -4 36 -1 48 11 25 25 16 49 -19
53 -17 2 -34 8 -39 13 -18 17 -36 9 -42 -17z"/>
<path d="M10276 4104 c-9 -23 -7 -52 4 -59 18 -11 50 19 50 47 0 23 -4 28 -24
28 -13 0 -27 -7 -30 -16z"/>
<path d="M5223 4077 c-4 -8 -23 -24 -40 -37 -42 -31 -41 -50 4 -95 26 -26 43
-35 62 -33 24 3 26 7 24 42 -2 22 -8 43 -15 47 -7 4 0 9 18 11 55 6 35 78 -21
78 -13 0 -28 -6 -32 -13z"/>
<path d="M5358 4078 c-9 -23 11 -60 29 -56 28 5 25 62 -3 66 -12 2 -24 -3 -26
-10z"/>
<path d="M3541 4021 c-15 -10 -8 -41 9 -41 15 0 25 29 14 40 -5 5 -15 5 -23 1z"/>
<path d="M10300 3980 c-11 -7 -12 -12 -3 -21 14 -14 46 -4 41 13 -6 16 -20 19
-38 8z"/>
<path d="M2987 3946 c-8 -20 3 -54 19 -60 17 -7 48 38 40 59 -7 19 -52 20 -59
1z"/>
<path d="M3605 3950 c-9 -15 4 -50 20 -50 7 0 21 7 30 16 12 12 13 19 4 30
-13 16 -45 19 -54 4z"/>
<path d="M3207 3908 c-6 -20 4 -48 18 -48 18 0 27 30 14 46 -14 17 -26 18 -32
2z"/>
<path d="M3307 3893 c-15 -14 -6 -53 15 -67 13 -9 43 -16 68 -16 40 0 49 4 69
31 20 27 21 33 9 46 -22 22 -67 7 -75 -26 l-6 -26 -14 33 c-9 23 -19 32 -36
32 -13 0 -27 -3 -30 -7z"/>
<path d="M4000 3859 c-10 -17 -9 -24 3 -37 23 -22 49 -8 45 25 -4 35 -33 42
-48 12z"/>
<path d="M2680 3845 c-10 -12 -8 -17 13 -26 33 -15 75 5 56 27 -15 18 -53 18
-69 -1z"/>
<path d="M3163 3833 c-19 -7 -17 -63 2 -63 10 0 15 -11 15 -35 0 -40 30 -65
50 -40 18 22 8 60 -17 63 -25 4 -29 12 -12 29 8 8 8 17 0 32 -12 21 -17 23
-38 14z"/>
<path d="M3558 3802 c-41 -25 -49 -122 -12 -153 17 -14 9 -29 -16 -29 -24 0
-43 -35 -37 -67 3 -19 -1 -26 -20 -34 -23 -8 -24 -13 -18 -52 14 -85 40 -97
109 -50 50 34 57 43 52 66 -2 9 -1 17 4 17 12 0 20 -27 20 -65 0 -19 5 -37 10
-40 6 -3 10 -17 10 -30 0 -56 28 -71 69 -37 34 28 37 73 7 109 -19 23 -26 42
-26 75 0 57 -25 108 -60 121 -17 7 -34 25 -44 47 -21 48 -20 54 9 70 42 22 28
73 -18 69 -7 0 -24 -8 -39 -17z"/>
<path d="M2547 3748 c-6 -18 11 -48 27 -48 8 0 19 7 26 15 10 12 10 18 0 30
-15 18 -47 20 -53 3z"/>
<path d="M2349 3726 c-9 -20 -9 -32 0 -52 14 -31 33 -27 46 10 17 49 -26 87
-46 42z"/>
<path d="M4550 3692 c0 -10 -9 -25 -20 -35 -11 -9 -20 -26 -20 -37 0 -12 -7
-32 -16 -45 -24 -37 -10 -67 29 -63 27 2 33 8 35 31 3 25 6 27 40 21 54 -8 77
12 68 59 -4 21 -12 37 -18 37 -6 0 -21 11 -34 25 -27 29 -64 34 -64 7z"/>
<path d="M3397 3693 c-11 -11 -8 -58 5 -71 18 -18 63 -14 81 6 22 25 21 49 -2
62 -22 11 -74 14 -84 3z"/>
<path d="M2424 3675 c-9 -23 41 -74 57 -58 6 6 9 23 7 39 -2 23 -9 30 -31 32
-18 2 -29 -2 -33 -13z"/>
<path d="M1067 3578 c-7 -21 12 -48 34 -48 28 0 37 30 14 46 -23 17 -42 18
-48 2z"/>
<path d="M1442 3518 c-13 -13 -16 -66 -6 -92 4 -10 18 -16 40 -16 l34 0 0 54
c0 40 -4 55 -16 60 -24 9 -39 7 -52 -6z"/>
<path d="M3167 3473 c-11 -10 -8 -51 3 -58 17 -10 50 5 50 24 0 30 -35 53 -53
34z"/>
<path d="M4406 3454 c-8 -32 6 -51 46 -59 49 -11 65 29 26 65 -31 29 -64 26
-72 -6z"/>
<path d="M4672 3471 c-8 -4 -12 -19 -10 -32 2 -17 10 -25 29 -27 30 -4 40 13
28 46 -9 23 -25 28 -47 13z"/>
<path d="M4233 3393 c-20 -14 -23 -24 -23 -87 0 -50 5 -79 16 -95 15 -21 15
-26 0 -65 -9 -23 -16 -52 -16 -65 0 -22 -2 -23 -54 -17 -34 5 -56 3 -61 -3 -4
-7 6 -11 27 -11 27 0 36 -5 46 -27 56 -122 93 -146 150 -98 17 14 39 25 51 25
28 0 28 30 0 88 -18 37 -25 43 -45 39 -16 -3 -24 0 -24 9 0 9 11 14 29 14 29
0 55 -17 64 -42 3 -9 12 -6 30 11 30 27 27 41 -10 41 -22 0 -24 3 -19 26 4 15
13 33 21 40 7 8 11 22 8 32 -5 22 -59 75 -85 85 -13 5 -18 17 -18 45 0 62 -41
88 -87 55z"/>
<path d="M4758 3385 c-9 -21 -7 -28 13 -49 28 -30 69 -35 69 -8 0 39 -13 61
-41 71 -27 9 -31 8 -41 -14z"/>
<path d="M3944 3375 c-8 -21 4 -35 31 -35 32 0 42 20 20 37 -24 17 -44 17 -51
-2z"/>
<path d="M5390 3355 c-18 -21 -5 -45 25 -45 27 0 35 26 13 48 -16 16 -23 15
-38 -3z"/>
<path d="M3333 3348 c-7 -8 -8 -29 -4 -53 8 -48 28 -55 77 -29 26 14 34 25 34
46 0 32 -5 35 -56 44 -28 4 -43 2 -51 -8z"/>
<path d="M3535 3340 c-4 -7 -3 -16 3 -22 14 -14 45 -2 40 15 -6 16 -34 21 -43
7z"/>
<path d="M4918 3273 c-22 -6 -23 -27 -2 -48 23 -22 39 -14 39 20 0 30 -8 36
-37 28z"/>
<path d="M4112 3238 c-22 -22 -15 -76 13 -94 34 -22 57 -14 67 23 12 47 -5 83
-40 83 -15 0 -33 -5 -40 -12z"/>
<path d="M5198 3154 c-23 -22 29 -101 59 -90 8 3 21 6 29 6 19 0 19 54 0 69
-18 15 -79 25 -88 15z"/>
<path d="M3058 3133 c-22 -5 -31 -32 -17 -50 17 -20 53 -12 57 13 3 24 -16 42
-40 37z"/>
<path d="M4658 3023 c-21 -24 -48 -79 -48 -97 0 -22 36 -38 88 -39 26 0 52 -6
59 -13 26 -25 103 19 103 59 0 29 -28 71 -61 90 -26 14 -31 15 -35 2 -8 -19
-28 -19 -44 0 -17 20 -43 19 -62 -2z"/>
<path d="M2207 3003 c-12 -3 -16 -10 -12 -21 4 -10 9 -30 12 -45 4 -18 15 -32
30 -38 36 -13 43 -11 43 11 0 24 -37 101 -48 99 -4 -1 -15 -3 -25 -6z"/>
<path d="M4404 2935 c-3 -8 -4 -20 -1 -27 6 -18 -63 -52 -77 -38 -16 16 -51
12 -76 -10 -13 -11 -31 -18 -40 -15 -10 3 -30 1 -45 -5 -22 -8 -26 -15 -22
-36 3 -20 -1 -27 -20 -35 -19 -7 -24 -15 -21 -37 4 -36 40 -38 48 -2 5 20 13
26 43 28 45 4 47 -10 7 -40 -35 -26 -38 -44 -9 -74 12 -12 18 -27 15 -32 -9
-16 -58 -1 -64 20 -8 31 -52 19 -76 -21 l-20 -34 30 -24 c16 -13 38 -26 50
-29 16 -4 19 -11 16 -36 -5 -35 13 -52 41 -36 10 5 30 7 44 3 20 -5 23 -8 13
-20 -21 -25 -4 -47 32 -43 27 2 34 8 36 28 2 14 8 29 13 34 5 6 9 18 9 27 0 9
9 19 20 22 14 3 20 14 20 31 0 19 5 26 20 26 22 0 45 43 35 68 -5 14 -40 13
-77 -3 -13 -5 -18 -3 -18 9 0 9 -9 25 -20 36 -11 11 -20 27 -20 36 0 9 9 27
20 41 11 14 20 34 20 43 0 10 7 24 16 31 14 11 19 9 34 -11 16 -21 16 -25 3
-35 -35 -26 19 -105 71 -105 27 0 67 26 73 48 10 40 -4 116 -33 175 -24 49
-32 57 -56 57 -16 0 -31 -7 -34 -15z"/>
<path d="M3963 2843 c-8 -23 -23 -33 -49 -33 -25 0 -46 -21 -36 -35 13 -18 88
-65 104 -65 32 0 68 40 68 75 0 53 -71 100 -87 58z"/>
<path d="M2363 2824 c-8 -22 9 -48 34 -52 15 -2 22 4 27 23 4 14 4 30 1 35
-10 16 -55 11 -62 -6z"/>
<path d="M4636 2824 c-26 -25 -16 -49 22 -52 32 -3 33 -2 30 30 -3 38 -27 48
-52 22z"/>
<path d="M4884 2826 c-3 -8 -4 -23 -2 -33 5 -25 51 -25 56 0 7 36 -42 65 -54
33z"/>
<path d="M1716 2775 c-9 -25 4 -45 30 -45 26 0 43 25 28 40 -19 17 -52 21 -58
5z"/>
<path d="M4757 2724 c-16 -16 -6 -70 19 -98 23 -26 28 -27 49 -16 14 8 36 10
57 6 18 -4 48 -10 66 -13 19 -3 36 -11 38 -18 3 -7 19 -19 35 -25 16 -7 29
-16 29 -20 0 -4 19 -12 43 -19 23 -7 50 -17 59 -22 10 -5 24 -9 32 -9 28 0 68
-48 73 -88 6 -47 -9 -61 -27 -27 -14 27 -35 35 -65 24 -11 -3 -43 -2 -72 4
-59 12 -83 1 -83 -39 0 -22 4 -24 48 -24 59 -1 92 -25 92 -69 0 -20 -7 -34
-20 -41 -22 -12 -26 -6 -32 40 -3 26 -15 30 -100 32 -22 1 -27 7 -32 34 -5 26
-14 35 -40 44 -18 6 -48 9 -67 8 -26 -2 -34 1 -37 17 -2 11 -9 26 -14 33 -13
15 -54 16 -63 2 -5 -8 -11 -8 -19 -1 -14 12 -101 0 -116 -15 -18 -19 2 -64 34
-78 97 -44 132 -56 164 -56 21 0 40 -7 47 -17 17 -22 49 -10 42 17 -5 21 7 28
18 10 3 -5 14 -10 25 -10 10 0 20 -7 24 -15 3 -9 18 -15 35 -15 19 0 35 -8 45
-22 14 -20 14 -24 0 -40 -39 -43 29 -67 79 -28 16 12 40 20 65 20 23 0 44 5
47 11 4 5 18 14 31 19 16 7 24 17 24 34 0 16 7 27 20 31 27 9 75 70 111 141
46 93 41 103 -59 124 -48 10 -69 10 -88 1 -40 -18 -63 -13 -108 24 -29 24 -53
35 -75 35 -38 0 -68 14 -98 47 -12 12 -30 23 -41 23 -10 0 -23 5 -30 12 -6 6
-30 14 -54 18 -24 4 -57 11 -73 15 -17 3 -33 3 -38 -1z"/>
<path d="M5296 2661 c-9 -15 32 -58 61 -65 16 -4 36 -9 46 -12 27 -8 21 22
-12 56 -28 30 -83 42 -95 21z"/>
<path d="M3866 2641 c-22 -24 -13 -41 20 -41 22 0 25 4 22 27 -4 34 -20 39
-42 14z"/>
<path d="M3056 2594 c-9 -24 2 -34 35 -34 33 0 51 26 28 41 -22 14 -56 10 -63
-7z"/>
<path d="M4524 2555 c-9 -23 7 -36 34 -28 14 3 22 12 20 22 -4 22 -46 27 -54
6z"/>
<path d="M4036 2493 c-4 -9 0 -23 9 -32 13 -14 17 -14 31 1 9 9 14 24 11 32
-8 21 -43 20 -51 -1z"/>
<path d="M2655 2472 c-11 -2 -24 -7 -28 -12 -11 -10 20 -70 36 -70 7 0 4 -7
-7 -15 -22 -17 -16 -49 17 -85 27 -30 82 -70 95 -70 5 0 16 -7 23 -16 10 -12
24 -15 54 -11 23 3 53 0 70 -7 41 -18 85 3 85 39 0 29 19 32 55 9 21 -14 26
-14 53 0 16 8 32 23 36 32 9 24 -13 46 -40 40 -37 -10 -56 2 -43 26 12 23 -5
42 -29 33 -8 -3 -18 -5 -23 -5 -5 0 -9 -10 -9 -23 0 -12 -9 -28 -20 -35 -11
-7 -20 -23 -20 -37 0 -14 -6 -25 -13 -25 -16 0 -47 32 -47 48 0 18 -55 19 -76
1 -12 -10 -50 36 -59 74 -4 13 -20 39 -36 56 -16 18 -29 36 -29 41 0 11 -21
17 -45 12z"/>
<path d="M2990 2464 c-11 -12 -10 -18 3 -31 22 -23 52 0 36 28 -12 23 -22 24
-39 3z"/>
<path d="M3188 2450 c-35 -36 -36 -69 -4 -100 30 -27 56 -21 56 14 0 21 5 25
33 28 29 3 32 6 35 39 3 31 -1 37 -20 43 -45 12 -73 5 -100 -24z"/>
<path d="M4371 2437 c-6 -6 -11 -21 -11 -34 0 -20 5 -23 34 -23 19 0 38 -4 41
-10 20 -32 103 20 91 58 -5 15 -17 18 -75 18 -39 1 -75 -4 -80 -9z"/>
<path d="M2794 2364 c-8 -31 9 -45 46 -42 31 4 39 36 14 55 -29 21 -53 16 -60
-13z"/>
<path d="M4982 1938 c-6 -6 -12 -22 -12 -35 0 -21 5 -23 45 -23 49 0 67 18 48
49 -13 20 -64 26 -81 9z"/>
<path d="M7417 1272 c-9 -10 -17 -29 -17 -41 0 -19 5 -22 33 -19 29 3 32 6 32
38 0 41 -22 51 -48 22z"/>
<path d="M7311 1049 c-17 -23 -22 -40 -18 -64 4 -26 0 -38 -19 -56 -13 -12
-24 -28 -24 -35 0 -6 -7 -14 -15 -18 -9 -3 -15 -18 -15 -34 0 -16 -9 -37 -20
-47 -11 -10 -20 -24 -20 -31 0 -7 -10 -14 -22 -16 -15 -2 -23 -10 -23 -23 0
-44 122 -23 290 50 17 7 38 16 48 19 9 3 17 12 17 21 0 20 -49 64 -72 65 -27
0 -32 20 -5 20 27 0 52 23 42 39 -3 6 -23 15 -45 21 -44 12 -56 34 -40 75 20
53 -23 63 -59 14z"/>
<path d="M7454 1035 c-9 -23 3 -45 25 -45 26 0 45 32 29 48 -17 17 -48 15 -54
-3z"/>
<path d="M6997 733 c-4 -3 -7 -14 -7 -24 0 -19 -47 -69 -66 -69 -14 0 -68 -49
-61 -56 3 -3 14 -1 25 5 12 6 32 11 46 11 33 0 96 30 96 46 0 6 7 14 15 18 26
9 18 55 -11 66 -30 12 -29 12 -37 3z"/>
</g>
</svg>
